<?xml version="1.0" encoding="UTF-8" standalone="no"?>
<svg
   xmlns:dc="http://purl.org/dc/elements/1.1/"
   xmlns:cc="http://creativecommons.org/ns#"
   xmlns:rdf="http://www.w3.org/1999/02/22-rdf-syntax-ns#"
   xmlns:svg="http://www.w3.org/2000/svg"
   xmlns="http://www.w3.org/2000/svg"
   xmlns:sodipodi="http://sodipodi.sourceforge.net/DTD/sodipodi-0.dtd"
   xmlns:inkscape="http://www.inkscape.org/namespaces/inkscape"
   width="147.58427mm"
   height="161.22426mm"
   viewBox="0 0 147.58427 161.22426"
   version="1.1"
   id="svg2086"
   inkscape:version="1.0.1 (c497b03c, 2020-09-10)"
   sodipodi:docname="Logo douanes beninoise.svg">
  <defs
     id="defs2080">
    <inkscape:path-effect
       effect="bend_path"
       id="path-effect1916"
       is_visible="true"
       lpeversion="1"
       bendpath="m 120.09998,-817.58558 c 93.40231,24.41098 171.28873,14.91337 246.85425,0"
       prop_scale="1"
       scale_y_rel="false"
       vertical="false"
       hide_knot="false"
       bendpath-nodetypes="cc" />
    <inkscape:path-effect
       effect="bend_path"
       id="path-effect1893"
       is_visible="true"
       lpeversion="1"
       bendpath="m 448.50291,-493.86161 c 66.90256,15.90811 136.38201,8.87435 206.06819,0"
       prop_scale="1"
       scale_y_rel="false"
       vertical="false"
       hide_knot="false"
       bendpath-nodetypes="cc" />
  </defs>
  <sodipodi:namedview
     id="base"
     pagecolor="#ffffff"
     bordercolor="#666666"
     borderopacity="1.0"
     inkscape:pageopacity="0.0"
     inkscape:pageshadow="2"
     inkscape:zoom="0.35"
     inkscape:cx="1261.7566"
     inkscape:cy="498.96148"
     inkscape:document-units="mm"
     inkscape:current-layer="layer1"
     inkscape:document-rotation="0"
     showgrid="false"
     inkscape:pagecheckerboard="true"
     fit-margin-top="0"
     fit-margin-left="0"
     fit-margin-right="0"
     fit-margin-bottom="0"
     inkscape:window-width="1366"
     inkscape:window-height="723"
     inkscape:window-x="0"
     inkscape:window-y="23"
     inkscape:window-maximized="0" />
  <metadata
     id="metadata2083">
    <rdf:RDF>
      <cc:Work
         rdf:about="">
        <dc:format>image/svg+xml</dc:format>
        <dc:type
           rdf:resource="http://purl.org/dc/dcmitype/StillImage" />
        <dc:title></dc:title>
      </cc:Work>
    </rdf:RDF>
  </metadata>
  <g
     inkscape:label="Calque 1"
     inkscape:groupmode="layer"
     id="layer1"
     transform="translate(235.56595,99.51094)">
    <path
       id="path1033-1"
       style="fill:#000000;fill-opacity:1;stroke:none;stroke-width:0.211667;stroke-linecap:butt;stroke-linejoin:miter;stroke-miterlimit:4;stroke-dasharray:none;stroke-opacity:1"
       d="m -161.81748,-99.51094 v 0.0744 c -24.10889,20.526666 -41.12771,29.607412 -73.74847,34.17158 1.8836,9.982677 4.69645,19.728868 7.50187,29.479849 6.77217,21.199104 12.49798,36.21349448 22.6503,53.07272 7.1523,11.56517 16.36077,23.71338 25.5881,32.04093 5.68085,5.06505 11.91318,9.20372 18.05212,12.38478 6.13897,-3.18106 12.37128,-7.31973 18.05215,-12.38478 9.22731,-8.32755 18.43577,-20.47576 25.58809,-32.04093 10.1523,-16.85922552 15.87812,-31.873616 22.65029,-53.07272 2.8054,-9.750981 5.61774,-19.497172 7.50136,-29.479849 -32.62077,-4.564168 -49.63909,-13.644914 -73.74795,-34.17158 v -0.0744 c -0.0148,0.0127 -0.0292,0.02461 -0.0439,0.0372 -0.0148,-0.0127 -0.0291,-0.02461 -0.0439,-0.0372 z" />
    <path
       id="path1056-6"
       style="fill:#ffffff;fill-opacity:1;stroke:none;stroke-width:0.264583px;stroke-linecap:butt;stroke-linejoin:miter;stroke-opacity:1"
       d="m -161.84217,-97.464604 c -8.5425,7.683338 -17.67844,13.522147 -27.27558,19.692381 -15.53465,8.535075 -28.04566,10.823006 -44.86164,13.732841 l 4.96632,19.522546 c 10.58619,-1.416553 18.60398,-3.896863 29.04323,-6.79667 16.37562,-4.753928 25.62743,-9.927643 38.12767,-20.11344 12.50024,10.185797 21.75201,15.359512 38.12765,20.11344 10.43921,2.899807 18.45651,5.380117 29.04273,6.79667 l 4.96681,-19.522546 c -16.81599,-2.909835 -29.32747,-5.197766 -44.86217,-13.732841 -9.59712,-6.170234 -18.73255,-12.009043 -27.27502,-19.692381 z" />
    <g
       id="g2021"
       transform="matrix(0.26458333,0,0,0.26458333,-436.53539,-336.08566)">
      <path
         id="path1042-5"
         style="fill:#ffffff;fill-opacity:1;stroke:none;stroke-width:1px;stroke-linecap:butt;stroke-linejoin:miter;stroke-opacity:1"
         d="m 1038.6449,1092.0397 -8.6231,13.1074 -1.6933,43.5762 -0.9395,42.9101 -5.6836,159.7325 16.9395,-0.051 16.9394,0.051 -5.6836,-159.7325 -0.9394,-42.9101 -1.6934,-43.5762 z" />
      <path
         style="fill:#d9d6d6;fill-opacity:1;stroke:none;stroke-width:1px;stroke-linecap:butt;stroke-linejoin:miter;stroke-opacity:1"
         d="m 1038.345,1351.3169 17.2393,0.049 -10.348,-246.2035 -6.8613,-10.5713 z"
         id="path1080-3-9"
         sodipodi:nodetypes="ccccc" />
    </g>
    <g
       id="g2017"
       transform="matrix(0.26458333,0,0,0.26458333,-436.53539,-336.08566)">
      <path
         style="fill:#008d5b;fill-opacity:1;stroke:none;stroke-width:0.1;stroke-miterlimit:4;stroke-dasharray:none;stroke-opacity:1"
         d="m 962.72571,1352.9055 -4.15271,-4.1236 13.94141,-13.3351 c 11.10719,-10.6241 13.11248,-14.6545 15.30859,-14.6871 1.5298,-0.023 5.41328,1.8357 5.71318,2.6173 0.5799,1.511 -16.75218,30.0381 -19.39808,32.1522 -2.98719,2.3866 -7.03989,1.4549 -11.41239,-2.6237 z m 24.4239,-36.1496 c -5.2736,-3.2152 -11.49601,-10.2145 -14.45731,-16.2623 -1.505,-3.0737 -2.7364,-5.8203 -2.7364,-6.1037 0,-1.0026 9.0423,2.224 13.4169,4.7877 5.30831,3.1109 9.45571,7.3252 10.78961,12.1564 1.1022,3.9919 0.4272,8.1971 -1.3149,8.1914 -0.6279,0 -3.8795,-1.6608 -5.6979,-2.7695 z m 6.3642,-12.4896 c -3.7948,-4.9754 -7.84741,-14.5244 -8.5162,-20.1716 -0.31371,-2.6485 -0.26031,-4.8155 0.11859,-4.8155 1.69871,0 6.60841,3.6156 9.46971,6.6646 3.962,4.2219 5.0961,6.4599 6.43329,12.695 1.9242,8.9721 -2.45179,12.2531 -7.50539,5.6275 z"
         id="path1324"
         sodipodi:nodetypes="scsssssssssscsssssss" />
      <path
         id="path1328"
         style="fill:#008d5b;fill-opacity:1;stroke:none;stroke-width:0.1;stroke-miterlimit:4;stroke-dasharray:none;stroke-opacity:1"
         d="m 1109.9015,1087.4957 c -2.1855,3.9054 -3.7325,12.4271 -3.7325,20.5332 0,6.3206 0.2673,9.899 0.9815,11.6412 2.8539,2.8868 5.8086,-1.828 6.9004,-4.0797 2.1281,-4.4757 2.3488,-10.0746 2.2194,-13.5361 -0.2869,-6.6119 -2.294,-10.5774 -3.5485,-12.9512 -1.3727,-2.1519 -1.4854,-3.543 -2.8203,-1.6074 z m 0.092,34.6815 c -1.3606,5.301 -2.9321,10.1727 -3.1704,15.6694 -0.1168,2.7572 -0.1615,5.5764 0.094,7.4459 0.2068,0.9692 0.7925,1.5056 1.3008,1.1914 4.4611,-4.0717 8.0804,-8.3736 11.1361,-12.6913 4.9526,-6.869 8.671,-12.7557 10.0525,-20.1839 0.528,-2.8455 0.7721,-6.1396 0.7838,-8.9133 0,-1.0283 0.023,-2.1048 -0.048,-3.1263 -0.2736,-2.2703 -0.2897,-3.1856 -2.2062,-2.0055 -4.0514,2.5745 -7.7867,6.0028 -10.87,9.8565 -3.1669,3.9583 -5.6458,8.3654 -7.0727,12.7571 z m -14.5967,-15.7671 c -1.8918,0 -2.4768,1.1991 -1.9873,15.8687 0.369,11.0578 1.0544,17.118 2.498,22.0449 1.095,3.7371 2.4975,7.4771 2.7925,7.7721 1.0593,1.0593 5.2502,-1.7486 6.9269,-4.9063 1.7563,-6.0861 1.2577,-13.1133 0.143,-18.6607 -1.7406,-8.5903 -4.8018,-18.1349 -6.7402,-20.2769 -0.917,-1.0133 -2.5513,-1.8418 -3.6329,-1.8418 z m 29.2978,19.7476 c -1.2882,1.2049 -2.8276,2.6389 -4.1523,4.4922 -0.9538,1.1876 -2.1731,2.1666 -2.9434,3.5098 -1.2721,1.7212 -2.7231,3.3048 -4.0332,4.998 -0.5537,0.7056 -1.1322,1.3957 -1.6054,2.1602 -0.6303,1.0885 -1.2358,2.2089 -1.7246,3.2968 -1.0982,1.747 -1.7632,5.0541 -2.5918,7.4141 -0.9647,3.1336 -1.864,6.3918 -1.194,9.5664 6.8335,-3.2013 14.0314,-8.7146 18.8369,-13.689 2.8766,-3.1207 5.9844,-6.0213 7.5297,-9.6178 1.155,-2.6884 2.6393,-6.1041 3.6769,-9.5552 0.4893,-2.2407 0.951,-4.6805 1.1688,-7.115 0.1257,-1.4046 0.1702,-2.8075 0.092,-4.1692 -4.836,2.2014 -9.1899,5.0819 -13.0595,8.7087 z m -43.9126,4.9872 c -1.3425,2.1214 -1.5917,4.6318 -2.2358,15.3839 -0.9756,16.2864 4.0484,42.3943 8.0215,41.6836 3.8185,-3.3477 5.6094,-7.0758 7.0782,-11.0519 0.8182,-2.2471 1.0562,-5.1093 1.3848,-7.5731 1.4963,-11.1977 -0.8009,-23.2863 -5.3965,-30.5803 -2.0831,-2.987 -4.1953,-6.1463 -8.8522,-7.8622 z m 35.5288,24.8412 c -5.1694,3.7619 -9.628,6.994 -15.0462,12.574 -5.9264,6.6124 -11.7326,14.1613 -13.6074,22.4024 -0.6507,2.9622 -0.6896,3.3909 1.6621,2.5586 4.1993,-1.7273 10.1516,-3.32 13.754,-6.203 8.0193,-7.4321 17.1002,-11.7859 23.4697,-19.8873 1.6109,-2.5377 3.4935,-5.2476 5.1836,-8.0594 2.4029,-3.4858 3.9196,-7.791 4.7284,-11.8539 1.2074,-4.4347 -1.1952,-2.9369 -4.2255,-1.2108 -5.7569,3.1312 -10.9926,6.1193 -15.9187,9.6794 z m -50.0196,7.1038 c -0.1657,4.2168 -0.1095,9.8247 0.1612,16.9019 0.5592,14.619 1.3087,19.7176 3.8633,26.2871 1.319,3.3921 2.1418,3.445 4.2187,0.2754 4.5425,-6.9327 6.0971,-24.9945 3.1465,-36.5449 -0.7773,-3.0428 -1.9146,-6.1804 -3.15,-8.9081 -1.4704,-2.7681 -3.3447,-7.6604 -6.3037,-8.8609 -1.7956,2.8425 -1.8185,7.9924 -1.936,10.8495 z m 35.9972,23.1869 c -2.1044,1.7625 -4.4411,3.4914 -6.588,5.1988 -2.2015,1.7509 -4.2035,3.4791 -5.5507,5.1977 -4.0739,4.6399 -7.6013,11.657 -6.1094,12.1543 1.1574,-0.1 2.4789,-0.3951 3.5118,-0.6152 5.6178,-1.0886 10.5016,-4.1411 15.3964,-6.1446 2.0582,-0.8458 4.1305,-1.8417 5.8614,-3.0722 4.0918,-2.3007 7.352,-5.2126 10.6681,-8.7579 5.8122,-6.2139 9.927,-14.1712 9.7796,-21.2705 -8.4753,1.6209 -20.3359,12.2487 -26.9692,17.3096 z m -51.1953,3.6758 c -0.8732,5.9716 -0.5791,13.188 0.5778,19.7784 0.448,2.4319 1.6027,10.0518 3.9393,14.384 1.7279,3.2037 4.3287,4.2695 6.5903,1.8767 2.0271,-2.7717 3.2501,-5.4892 4.2936,-8.4698 1.1387,-4.5465 0.6703,-8.3119 0.014,-12.0734 -0.5814,-3.3061 -1.3048,-6.5341 -2.2503,-9.5403 -1.3304,-4.1917 -3.0543,-8.18 -5.0256,-11.9004 -1.3548,-2.5244 -3.4519,-4.6556 -5.7395,-5.903 -1.6362,3.5533 -1.8845,8.3234 -2.3992,11.8478 z m 60.8008,10.6486 c -12.1465,1.4415 -21.3145,4.3587 -28.6543,9.8067 -0.5351,0.4026 -1.0599,0.9878 -1.8223,1.541 -5.2687,3.823 -14.2735,13.8929 -14.2735,15.9609 0,2.4428 1.9821,4.1124 4.9493,4.1661 0.4347,0.062 0.833,0.01 1.2617,-0.01 0.4328,0.019 0.8773,0.01 1.3223,0 -0.746,0.2496 -1.4381,0.4976 -2.0489,0.7422 -0.5425,0.2869 -1.4611,0.6749 -2.7929,1.1953 -5.9891,2.3401 -11.6915,6.6081 -11.6915,8.75 0.737,3.5132 3.4558,4.9587 6.3301,6.0429 2.0726,0.7754 4.2242,1.2974 6.1895,1.4063 3.8524,0.1877 7.7933,-0.7502 11.4804,-2.3418 8.3287,-4.1189 19.4419,-12.9764 24.8659,-18.7329 1.3531,-1.436 2.3302,-2.7286 2.7832,-3.793 -1.4303,-0.3512 -3.4205,-0.05 -5.5365,0.4397 -2.6195,0.6059 -5.4316,1.1465 -7.6126,1.4475 -1.6865,0.5182 -3.5989,0.8357 -5.2187,1.0527 4.7661,-2.7147 9.7016,-6.0882 13.6831,-9.2126 5.11,-4.1158 9.3985,-8.9784 12.797,-13.9784 0.9284,-1.3658 1.7112,-2.788 2.3038,-4.2795 -2.7341,-0.4427 -5.7,-0.4026 -8.3151,-0.1991 z"
         sodipodi:nodetypes="cscccccccccccsccsccccccsscccccccccccscsccscccccsccccccccsccscccscccccccsccccccccccccccsccccccccccscscccscccs" />
      <path
         style="fill:#008d5b;fill-opacity:1;stroke:none;stroke-width:0.1;stroke-linecap:butt;stroke-linejoin:miter;stroke-miterlimit:4;stroke-dasharray:none;stroke-opacity:1"
         d="m 1040.3795,1201.114 c -1.2501,1.9893 -2.005,4.2423 -2.5606,6.4492 -0.7581,3.4249 -1.7203,7.0331 -1.9917,10.2392 -0.6584,6.2954 -0.341,13.1847 0.8493,18.8797 0.6506,2.8415 1.204,8.7569 3.0548,10.6905 1.3817,1.4226 4.6798,1.8073 6.7247,0.8149 2.8431,-1.8112 4.6931,-7.1263 5.1374,-10.1458 0.6356,-3.7148 0.8292,-8.904 0.2419,-12.4442 -1.1706,-6.1992 -4.4355,-12.3061 -7.3494,-17.4449 -1.3688,-2.3462 -2.7376,-4.6924 -4.1064,-7.0386 z"
         id="path1642"
         sodipodi:nodetypes="ccccccccccc" />
      <path
         style="fill:#008d5b;fill-opacity:1;stroke:none;stroke-width:0.1;stroke-linecap:butt;stroke-linejoin:miter;stroke-miterlimit:4;stroke-dasharray:none;stroke-opacity:1"
         d="m 1085.4529,1250.7284 c -3.4249,-0.7581 -6.8564,-1.3668 -10.0625,-1.6382 -6.2954,-0.6584 -13.715,-0.6945 -19.41,0.4958 -2.8415,0.6506 -7.6962,2.795 -9.6299,4.6457 -1.4226,1.3818 -2.5144,4.7683 -1.5219,6.8132 1.8111,2.8431 7.4798,5.2234 10.4993,5.6677 3.7148,0.6356 8.6389,-0.3198 12.179,-0.9072 3.737,-0.7056 7.4083,-1.9474 10.8608,-3.4609 3.7891,-1.6954 7.3139,-3.4076 10.0143,-6.1762 1.2495,-1.2907 2.3236,-2.6777 2.8129,-3.6748 -2.2174,-0.9858 -3.9885,-1.2701 -5.742,-1.7651 z"
         id="path1644"
         sodipodi:nodetypes="ccccccccccc" />
      <path
         style="fill:#008d5b;fill-opacity:1;stroke:none;stroke-width:0.1;stroke-linecap:butt;stroke-linejoin:miter;stroke-miterlimit:4;stroke-dasharray:none;stroke-opacity:1"
         d="m 1060.4643,1282.0459 c -9.259,3.0398 -18.1482,6.5445 -26.1138,-0.7209 -1.4226,-1.3818 -2.5144,-4.7683 -1.5219,-6.8132 1.8111,-2.8431 7.4798,-5.2234 10.4993,-5.6677 1.8037,-0.3086 3.8716,-0.4297 5.9273,-0.4053 5.8626,0.035 12.1159,0.3385 17.4825,0.8328 2.8477,0.4186 6.0781,0.9486 8.6098,2.3742 4.7356,2.5133 4.1898,3.1371 0.4394,4.8996 -5.0896,2.3838 -10.6711,3.9464 -15.3226,5.5005 z"
         id="path1646"
         sodipodi:nodetypes="ccccccccc" />
      <path
         style="fill:#008d5b;fill-opacity:1;stroke:none;stroke-width:0.1;stroke-linecap:butt;stroke-linejoin:miter;stroke-miterlimit:4;stroke-dasharray:none;stroke-opacity:1"
         d="m 998.50921,1253.6116 c -0.86079,2.1861 -1.18614,4.5399 -1.32411,6.8114 -0.11184,3.506 -0.39044,7.23 -0.0644,10.4309 0.51683,6.3086 2.5245,12.5595 4.7472,17.9363 1.1647,2.6722 2.9385,5.0507 5.1148,6.6088 1.6209,1.1426 3.4287,1.7027 5.2549,0.3493 2.4593,-2.3055 2.7048,-5.5978 2.5832,-8.6473 -0.062,-3.7683 -0.9991,-7.0916 -2.2308,-10.4622 -2.2965,-5.8759 -4.9301,-12.3577 -8.7439,-16.8691 -1.779,-2.0527 -3.558,-4.1054 -5.33694,-6.1581 z"
         id="path1648"
         sodipodi:nodetypes="ccccccccccc" />
      <path
         style="fill:#008d5b;fill-opacity:1;stroke:none;stroke-width:0.1;stroke-linecap:butt;stroke-linejoin:miter;stroke-miterlimit:4;stroke-dasharray:none;stroke-opacity:1"
         d="m 1021.3336,1315.1283 c -5.1791,0.3495 -10.1141,-0.3507 -13.5689,-3.1292 -1.4226,-1.3817 -1.8072,-3.0888 -0.8148,-5.1337 1.8111,-2.8431 5.3585,-4.2511 8.378,-4.6954 1.8037,-0.3087 3.8716,-0.4298 5.9273,-0.4054 5.8626,0.035 12.1159,0.3385 17.4825,0.8329 4.8023,0.5014 8.1335,1.3792 12.0079,3.6931 0.078,0.7279 -1.0056,1.3369 -2.9587,2.2548 -2.3189,1.0861 -4.4462,1.7265 -6.5152,2.2488 -6.7037,1.5433 -13.5095,3.8613 -19.9381,4.3341 z"
         id="path1650"
         sodipodi:nodetypes="cccccccccc" />
      <path
         style="fill:#008d5b;fill-opacity:1;stroke:none;stroke-width:0.1;stroke-linecap:butt;stroke-linejoin:miter;stroke-miterlimit:4;stroke-dasharray:none;stroke-opacity:1"
         d="m 1001.7543,1325.1378 c -1.4226,-1.3817 -1.80724,-3.0889 -0.8148,-5.1338 1.8111,-2.8431 2.6184,-4.0743 5.6379,-4.5186 4.539,0.2204 11.8518,2.0254 18.5117,4.3567 3.62,1.2671 7.047,2.6896 9.7308,4.0977 4.1481,2.0925 7.8941,5.6519 9.0308,7.9985 -8.1491,3.1217 -21.8728,0.3644 -29.4398,-1.2784 -4.5593,-1.043 -8.9892,-2.6931 -12.6566,-5.5221 z"
         id="path1652"
         sodipodi:nodetypes="cccscccc" />
      <path
         style="fill:#008d5b;fill-opacity:1;stroke:none;stroke-width:0.1;stroke-linecap:butt;stroke-linejoin:miter;stroke-miterlimit:4;stroke-dasharray:none;stroke-opacity:1"
         d="m 1019.9087,1209.6116 c -0.8608,2.1861 -1.1861,4.5399 -1.3241,6.8114 -0.1118,3.506 -0.3904,7.23 -0.064,10.4309 0.5168,6.3086 2.5245,12.5595 4.7472,17.9363 1.1647,2.6722 2.9385,5.0507 5.1148,6.6088 1.6209,1.1426 3.4288,1.7027 5.2549,0.3493 2.4593,-2.3055 2.7048,-5.5978 2.5832,-8.6473 -0.062,-3.7683 -0.9991,-7.0916 -2.2308,-10.4622 -2.2965,-5.8759 -4.9301,-12.3577 -8.7439,-16.8691 -1.779,-2.0527 -3.5579,-4.1054 -5.3369,-6.1581 z"
         id="path1627"
         sodipodi:nodetypes="ccccccccccc" />
    </g>
    <g
       id="g2025"
       transform="matrix(0.26458333,0,0,0.26458333,-436.53539,-336.08566)">
      <path
         id="path1021-1"
         style="fill:#fff900;fill-opacity:1;stroke:none;stroke-width:1px;stroke-linecap:butt;stroke-linejoin:miter;stroke-opacity:1"
         d="m 985.375,1360.2241 v 12.1407 l 31.1015,0.053 v 50.9473 l 21.9356,-0.064 21.9355,0.064 v -50.9473 l 31.1016,-0.053 v -12.1407 h -53.0371 z" />
      <path
         style="fill:#c8ae00;fill-opacity:1;stroke:none;stroke-width:1px;stroke-linecap:butt;stroke-linejoin:miter;stroke-opacity:1"
         d="m 1060.3263,1372.4178 v 6.1347 h -43.8498 v -6.1347 z"
         id="path1199-7" />
    </g>
    <g
       id="g1937"
       transform="matrix(0.26458333,0,0,0.26458333,-275.28838,96.17551)">
      <g
         aria-label="BENINOISES"
         transform="rotate(23.529975,-76.198582,39.899345)"
         id="text1224"
         style="font-style:normal;font-variant:normal;font-weight:normal;font-stretch:normal;font-size:42.6667px;line-height:1.25;font-family:Athelas;-inkscape-font-specification:Athelas;text-align:center;letter-spacing:0.35px;word-spacing:0px;text-anchor:middle"
         inkscape:path-effect="#path-effect1916">
        <path
           d="m 135.02225,-814.91524 c 1.14875,0.37648 2.17336,0.85124 3.07577,1.42699 0.93644,0.55404 1.7085,1.19963 2.31652,1.93945 0.6139,0.71197 1.03841,1.49823 1.27212,2.36046 0.26197,0.86801 0.29669,1.77558 0.1006,2.72245 -0.26533,1.28124 -0.75531,2.35593 -1.47522,3.22276 -0.69105,0.87261 -1.56842,1.54586 -2.63283,2.01647 -1.02957,0.44891 -2.23169,0.69855 -3.60382,0.74472 -1.37199,0.0462 -2.8535,-0.11227 -4.43887,-0.47845 -2.4934,-0.57593 -4.98225,-1.17217 -7.46623,-1.78872 -0.51469,-0.12775 -1.10757,-0.27583 -1.76523,-0.44177 -0.63817,-0.13166 -1.25084,-0.24364 -1.83839,-0.33566 -0.35111,-0.0607 -0.69865,-0.13557 -1.04252,-0.22462 -0.351,-0.0615 -0.68409,-0.13345 -0.99915,-0.21577 0.0108,-0.10007 0.0217,-0.20013 0.0326,-0.30019 -0.007,-0.0901 -0.003,-0.16259 0.011,-0.21762 0.0216,-0.0826 0.0396,-0.15135 0.054,-0.20639 0.0792,-0.30269 0.17246,-0.48413 0.2797,-0.5443 0.143,-0.0802 0.28944,-0.11554 0.43939,-0.1059 1.03504,0.12248 1.78514,0.10853 2.24789,-0.0373 0.49176,-0.13871 0.80706,-0.4843 0.94706,-1.03567 l 5.26079,-20.71804 c 0.14001,-0.55138 0.0615,-0.98206 -0.23449,-1.29249 -0.28926,-0.33833 -0.92621,-0.72084 -1.91046,-1.15363 -0.20188,-0.11136 -0.31177,-0.24302 -0.3298,-0.39475 -0.0108,-0.17924 0.0126,-0.37891 0.0702,-0.59907 0.0144,-0.055 0.0288,-0.11005 0.0432,-0.16511 0.0216,-0.0826 0.0531,-0.14782 0.0944,-0.1958 0.0288,-0.11008 0.0675,-0.20288 0.11597,-0.27839 0.79249,0.26596 1.68249,0.55518 2.6658,0.86435 1.0162,0.28818 1.85389,0.5125 2.50044,0.67316 1.86438,0.46328 3.73181,0.9144 5.60213,1.35334 1.73512,0.40722 3.13147,0.91394 4.19362,1.53113 1.06789,0.58915 1.87729,1.26154 2.42757,2.0216 0.55022,0.75999 0.87774,1.57197 0.97993,2.43735 0.13562,0.84339 0.11286,1.69638 -0.0708,2.5587 -0.34362,1.61342 -1.14568,2.79577 -2.4154,3.53916 -1.26356,0.71552 -2.75817,1.11555 -4.47926,1.19285 -0.009,0.0416 -0.0188,0.0831 -0.0282,0.12472 z m -8.99373,9.42074 c -0.15342,0.63587 0.0463,1.12326 0.60153,1.46082 0.59021,0.31659 1.2873,0.56968 2.09033,0.75772 1.97913,0.46344 3.55204,0.39505 4.70641,-0.19122 1.16214,-0.61483 1.94047,-1.84096 2.34501,-3.6743 0.22059,-0.99975 0.22891,-1.91553 0.0279,-2.74658 -0.17278,-0.82492 -0.50175,-1.53931 -0.98618,-2.14397 -0.47825,-0.63247 -1.08078,-1.16294 -1.80818,-1.59293 -0.72746,-0.43002 -1.52381,-0.74672 -2.39089,-0.95127 -0.75519,-0.17816 -1.50994,-0.35824 -2.26423,-0.54024 -0.7739,3.20732 -1.54781,6.41465 -2.32172,9.62197 z m 3.48956,-11.53514 c 1.08477,0.26003 2.02291,0.3345 2.81093,0.22629 0.78822,-0.10822 1.44489,-0.35115 1.96962,-0.72691 0.55893,-0.39717 0.99017,-0.88254 1.29483,-1.45502 0.33237,-0.56623 0.57327,-1.18241 0.72393,-1.8482 0.14437,-0.63801 0.16905,-1.25941 0.0753,-1.86398 -0.06,-0.6261 -0.26155,-1.19701 -0.60379,-1.7132 -0.34227,-0.51626 -0.84206,-0.9671 -1.49924,-1.35426 -0.65081,-0.41493 -1.46512,-0.7383 -2.44454,-0.97313 -0.21765,-0.0522 -0.43525,-0.10453 -0.65281,-0.15704 l -2.34174,9.70492 c 0.22245,0.0537 0.44494,0.10719 0.66747,0.16053 z"
           style="font-style:normal;font-variant:normal;font-weight:bold;font-stretch:normal;font-size:42.6667px;font-family:Athelas;-inkscape-font-specification:'Athelas Bold'"
           id="path1895"
           inkscape:original-d="m 135.20406,-818.52428 q 1.792,0.17067 3.28533,0.72534 1.536,0.512 2.64534,1.408 1.10933,0.85333 1.70667,2.048 0.64,1.19467 0.64,2.64533 0,1.96267 -0.768,3.45601 -0.72534,1.49333 -2.09067,2.51733 -1.32267,0.98134 -3.24267,1.49334 -1.92,0.512 -4.26667,0.512 h -7.38134 q -0.768,0 -1.74933,0 -0.93867,0.0427 -1.79201,0.128 -0.512,0.0427 -1.024,0.0427 -0.512,0.0427 -0.98133,0.0427 l -0.0427,-0.29867 q -0.0427,-0.128 -0.0427,-0.21333 0,-0.128 0,-0.21333 0,-0.46934 0.128,-0.59734 0.17066,-0.17066 0.384,-0.21333 1.49333,-0.21333 2.09066,-0.59733 0.64001,-0.384 0.64001,-1.23734 v -21.37601 q 0,-0.85334 -0.55467,-1.19467 -0.55467,-0.384 -2.176,-0.64 -0.34134,-0.0853 -0.42667,-0.29867 -0.0853,-0.256 -0.0853,-0.59733 0,-0.0853 0,-0.17067 0,-0.128 0.0427,-0.21333 0,-0.17067 0.0427,-0.29867 1.28,0.0853 2.85867,0.17067 1.62133,0.0427 2.64533,0.0427 h 5.88801 q 2.73067,0 4.52267,0.55467 1.792,0.512 2.85867,1.45067 1.06666,0.93867 1.49333,2.176 0.46933,1.19467 0.46933,2.51733 0,2.47467 -1.62133,3.96801 -1.62133,1.45067 -4.096,2.13333 z m -6.48534,11.22134 q 0,0.98134 0.896,1.28001 0.93867,0.256 2.13333,0.256 2.94401,0 4.39467,-1.23734 1.45067,-1.28 1.45067,-4.096 0,-1.536 -0.55466,-2.688 -0.512,-1.152 -1.40801,-1.87734 -0.896,-0.768 -2.09066,-1.152 -1.19467,-0.384 -2.51734,-0.384 h -2.304 z m 0.68267,-12.032 q 1.664,0 2.77333,-0.42667 1.10934,-0.42667 1.74934,-1.152 0.68266,-0.768 0.93866,-1.70667 0.29867,-0.93867 0.29867,-1.96267 0,-0.98133 -0.34133,-1.83467 -0.29867,-0.896 -0.98134,-1.536 -0.68266,-0.64 -1.792,-0.98133 -1.10933,-0.384 -2.64533,-0.384 h -0.68267 v 9.98401 z" />
        <path
           d="m 157.07862,-821.45465 -1.81585,10.11966 c 1.98609,0.35638 3.97453,0.69966 5.96515,1.02983 0.53657,0.089 0.93838,-0.0615 1.20458,-0.45023 0.27087,-0.41692 0.55636,-1.10509 0.85617,-2.06497 0.0645,-0.22002 0.17147,-0.34673 0.3208,-0.38022 0.15389,-0.0616 0.34297,-0.0743 0.56739,-0.0383 0.0842,0.0135 0.20813,0.0478 0.37202,0.10275 0.19643,0.0313 0.33449,0.0676 0.41424,0.10912 -0.15856,0.63716 -0.3352,1.38662 -0.53004,2.24838 -0.16221,0.83832 -0.29025,1.55194 -0.3841,2.14195 -0.0804,0.50546 -0.1623,1.11182 -0.24543,1.81844 -0.0787,0.67846 -0.14446,1.46028 -0.19676,2.34449 -0.0947,0.0426 -0.24442,0.062 -0.44911,0.0582 -0.0552,-0.009 -0.33095,-0.053 -0.38611,-0.0618 -0.51492,-0.0826 -0.7545,-0.32343 -0.7193,-0.721 0.002,-1.09451 -0.0808,-1.84285 -0.24839,-2.24483 -0.13465,-0.42551 -0.44283,-0.67768 -0.92499,-0.75765 -1.99986,-0.33169 -3.99754,-0.67657 -5.99287,-1.03461 l -1.68777,9.40583 c -0.10546,0.5877 0.19992,1.0476 0.91881,1.37703 0.71711,0.3286 1.97915,0.65241 3.77779,0.95539 0.60971,0.1027 1.21962,0.20421 1.82973,0.30452 0.87154,0.1433 1.61671,0.14806 2.23355,0.0161 0.646,-0.12729 1.23205,-0.35176 1.75762,-0.6727 0.52999,-0.34907 1.00951,-0.76424 1.43866,-1.2451 0.43345,-0.50897 0.87433,-1.07474 1.32225,-1.69737 0.11625,-0.1838 0.33275,-0.25172 0.64969,-0.20425 0.14408,0.0216 0.31064,0.0896 0.4999,0.20399 -4e-5,-2e-5 0.56816,0.34285 0.56813,0.34282 -0.0908,0.21661 -0.19412,0.41698 -0.30991,0.60112 3e-5,-5e-5 -0.26087,0.56521 -0.26085,0.56516 -0.19045,0.28803 -0.35645,0.6084 -0.49785,0.96114 -0.1414,0.35274 -0.27253,0.6351 -0.39328,0.84711 -0.10007,0.27254 -0.22116,0.58525 -0.36328,0.93774 -0.10878,0.32878 -0.23225,0.65536 -0.3705,0.97969 -0.10484,0.3006 -0.22014,0.57084 -0.34598,0.81072 -0.0966,0.24425 -0.16595,0.40641 -0.20795,0.48632 -0.15094,0.20726 -0.40206,0.28436 -0.75308,0.23075 -0.23373,-0.0357 -0.56844,-0.10139 -1.00238,-0.19741 -0.43458,-0.0962 -0.91167,-0.19942 -1.43354,-0.3107 -0.49669,-0.0785 -1.00566,-0.17421 -1.52671,-0.28716 -0.52123,-0.11299 -0.97099,-0.2009 -1.35055,-0.2633 -3.31235,-0.54461 -6.61902,-1.12434 -9.91931,-1.73915 -0.84471,-0.15736 -1.81806,-0.32655 -2.92868,-0.51164 -1.08833,-0.15175 -2.06614,-0.28648 -2.95077,-0.40458 -0.0358,-0.12314 -0.0369,-0.26837 -0.004,-0.43572 0.0389,-0.19524 0.0668,-0.33469 0.0835,-0.41836 0.0835,-0.4184 0.27274,-0.61257 0.56751,-0.58304 1.13766,0.023 1.96073,-0.0352 2.46607,-0.16897 0.53497,-0.1284 0.85536,-0.47261 0.96241,-1.03122 l 4.02285,-20.99127 c 0.0535,-0.27932 0.055,-0.51072 0.005,-0.69412 -0.045,-0.21137 -0.18037,-0.39664 -0.40599,-0.55607 -0.19279,-0.18208 -0.47306,-0.3522 -0.84081,-0.51094 -0.33501,-0.18139 -0.7789,-0.38429 -1.33223,-0.61019 -0.25734,-0.13809 -0.34412,-0.41649 -0.26064,-0.83486 0.0278,-0.13946 0.0529,-0.26497 0.0751,-0.37653 0.0278,-0.13946 0.083,-0.27347 0.16532,-0.40205 1.15634,0.31749 2.18537,0.57585 3.08167,0.77684 0.89628,0.20101 1.67503,0.36217 2.3313,0.48451 2.80592,0.52309 5.61695,1.01924 8.43256,1.48842 1.23562,0.20589 2.30204,0.33505 3.19473,0.39087 0.92236,0.0603 1.54438,0.11377 1.87609,0.16516 0.30252,0.0469 0.50311,0.20716 0.60197,0.48129 0.0481,0.23754 0.0524,0.66984 0.013,1.29675 -0.0351,0.59879 -0.0328,1.23218 0.007,1.89994 0.0104,0.49065 0.0371,0.96936 0.0802,1.43615 0.0431,0.46657 0.12725,1.04063 0.25333,1.72089 -0.1481,0.0352 -0.31024,0.0683 -0.48637,0.0992 -0.17614,0.0308 -0.34807,0.0334 -0.51569,0.008 -0.30734,-0.0469 -0.51138,-0.20784 -0.61191,-0.48231 -0.22221,-0.78245 -0.46006,-1.45258 -0.7143,-2.01052 -0.22206,-0.58168 -0.51612,-1.05984 -0.88236,-1.4348 -0.33412,-0.3987 -0.76593,-0.71261 -1.29581,-0.94262 -0.50234,-0.22557 -1.1257,-0.39961 -1.87096,-0.5238 -1.83542,-0.30585 -3.66892,-0.62312 -5.50034,-0.95178 z"
           style="font-style:normal;font-variant:normal;font-weight:bold;font-stretch:normal;font-size:42.6667px;font-family:Athelas;-inkscape-font-specification:'Athelas Bold'"
           id="path1897"
           inkscape:original-d="m 155.61541,-829.31895 v 10.28267 h 6.016 q 0.81067,0 1.10933,-0.64 0.29867,-0.68267 0.51201,-2.176 0.0427,-0.34133 0.256,-0.42667 0.21333,-0.128 0.55466,-0.128 0.128,0 0.384,0.0427 0.29867,0 0.42667,0.0427 -0.0853,0.98133 -0.17067,2.304 -0.0427,1.28 -0.0427,2.176 0,0.768 0.0427,1.83467 0.0427,1.024 0.17067,2.34667 -0.128,0.0853 -0.42667,0.128 -0.256,0 -0.384,0 -0.768,0 -0.81066,-0.59734 -0.25601,-1.62133 -0.59734,-2.176 -0.29867,-0.59733 -1.024,-0.59733 h -6.016 v 9.55734 q 0,0.896 1.10933,1.19467 1.10933,0.29866 3.75467,0.29866 h 1.792 q 1.28,0 2.13334,-0.34133 0.896,-0.34134 1.57866,-0.93867 0.68267,-0.64 1.19467,-1.45067 0.512,-0.85333 1.024,-1.87733 0.128,-0.29867 0.59734,-0.29867 0.21333,0 0.512,0.128 0.29866,0.128 0.59733,0.256 -0.0853,0.34134 -0.21333,0.64 -0.0853,0.29867 -0.17067,0.59734 -0.21333,0.46933 -0.34133,1.024 -0.128,0.55466 -0.256,0.896 -0.0853,0.42666 -0.21334,0.98133 -0.0853,0.512 -0.21333,1.024 -0.0853,0.46934 -0.21333,0.85334 -0.0853,0.384 -0.128,0.512 -0.17067,0.34133 -0.68267,0.34133 -0.34134,0 -0.98134,-0.0427 -0.64,-0.0427 -1.408,-0.0853 -0.72533,0 -1.49333,-0.0427 -0.768,-0.0427 -1.32267,-0.0427 h -9.68534 q -1.23733,0 -2.85867,0.0427 -1.57867,0.0853 -2.85867,0.17067 -0.0853,-0.17067 -0.0853,-0.42667 0,-0.29866 0,-0.42666 0,-0.64 0.42667,-0.68267 1.62133,-0.29867 2.304,-0.64 0.72533,-0.34133 0.72533,-1.19467 v -21.37601 q 0,-0.42667 -0.128,-0.68267 -0.128,-0.29867 -0.512,-0.46934 -0.34133,-0.21333 -0.93867,-0.34133 -0.55466,-0.17067 -1.45066,-0.34133 -0.42667,-0.128 -0.42667,-0.768 0,-0.21334 0,-0.384 0,-0.21334 0.0853,-0.42667 1.83467,0.128 3.24267,0.17067 1.408,0.0427 2.432,0.0427 h 8.74668 q 1.92,0 3.28533,-0.128 1.408,-0.128 1.92,-0.128 0.46934,0 0.68267,0.384 0.128,0.34134 0.21333,1.28 0.0853,0.896 0.29867,1.87734 0.128,0.72533 0.29867,1.408 0.17067,0.68267 0.512,1.664 -0.21333,0.0853 -0.46933,0.17067 -0.256,0.0853 -0.512,0.0853 -0.46934,0 -0.68267,-0.384 -0.512,-1.10933 -1.024,-1.87733 -0.46934,-0.81067 -1.10934,-1.28 -0.59733,-0.51201 -1.45066,-0.72534 -0.81067,-0.21333 -1.96267,-0.21333 z" />
        <path
           d="m 194.38717,-799.99552 1.37028,-15.08284 c 0.0566,-0.62315 -0.11282,-1.08105 -0.50716,-1.37448 -0.39465,-0.29367 -1.11309,-0.55986 -2.15625,-0.80418 -0.35334,-0.1201 -0.50736,-0.40688 -0.46278,-0.85972 0.008,-0.0849 0.0195,-0.19812 0.0334,-0.33964 0.0139,-0.14153 0.0556,-0.28032 0.12489,-0.4164 0.6843,0.15296 1.35809,0.27469 2.02093,0.36533 0.66241,0.0906 1.43862,0.17614 2.32604,0.25458 0.88731,0.0784 1.65282,0.12918 2.29301,0.15393 0.64072,0.0248 1.28379,0.0198 1.92885,-0.0148 0.0166,0.14396 0.0193,0.28682 0.008,0.42859 0.0166,0.14397 0.0216,0.25846 0.0149,0.34353 -0.038,0.48198 -0.22612,0.7383 -0.56497,0.76832 -0.93052,0.0684 -1.57335,0.21399 -1.92956,0.44108 -0.35588,0.22689 -0.55851,0.62351 -0.60682,1.19027 l -2.11937,24.86712 c -0.12034,0.0183 -0.32812,0.0149 -0.62298,-0.0107 -0.26776,0.005 -0.44619,0.004 -0.53454,-0.004 -0.20643,-0.0181 -0.42264,-0.0943 -0.64836,-0.22862 -0.22823,-0.10599 -0.461,-0.32679 -0.69767,-0.66238 -5.15678,-7.60712 -10.04452,-15.29675 -14.66032,-23.05446 l -2.33579,18.28094 c -0.036,0.28213 -0.0521,0.52376 -0.0481,0.72499 0.0367,0.17672 0.13373,0.3468 0.29115,0.51012 0.19016,0.1388 0.45362,0.28683 0.7904,0.4436 0.36905,0.13205 0.85514,0.29299 1.4556,0.4807 0.14292,0.0461 0.25146,0.1309 0.32565,0.25446 0.10688,0.0989 0.14164,0.30362 0.10413,0.61421 -0.0239,0.19762 -0.0822,0.43413 -0.17504,0.70936 -0.72727,-0.14524 -1.41062,-0.28697 -2.04894,-0.42436 -0.64249,-0.10929 -1.3879,-0.2184 -2.23876,-0.32923 -0.85049,-0.11077 -1.67306,-0.20589 -2.46824,-0.28495 -0.77026,-0.047 -1.4801,-0.0878 -2.13322,-0.12177 -0.0428,-0.12087 -0.0543,-0.25172 -0.0345,-0.39254 0.0198,-0.14082 0.0356,-0.25348 0.0474,-0.33797 0.0395,-0.28164 0.11105,-0.47266 0.21447,-0.57304 0.13264,-0.0963 0.27391,-0.14835 0.42388,-0.1562 1.07479,-0.0227 1.80508,-0.13989 2.18912,-0.34623 0.3844,-0.20653 0.61196,-0.57796 0.68344,-1.11358 l 2.85555,-21.39673 c 0.0602,-0.45106 -0.0474,-0.80965 -0.32202,-1.07616 -0.24336,-0.29127 -0.86725,-0.57553 -1.87166,-0.8587 -0.32039,-0.13069 -0.44868,-0.42157 -0.38554,-0.8722 0.008,-0.0563 0.0158,-0.11264 0.0237,-0.169 0.0118,-0.0845 0.0375,-0.16706 0.0769,-0.24769 0.0296,-0.11073 0.0591,-0.22146 0.0887,-0.33219 0.38213,0.0822 0.75029,0.16189 1.10511,0.23929 0.35859,0.0492 0.7153,0.11217 1.07024,0.18876 0.60328,0.11008 1.20687,0.21891 1.81074,0.32647 0.6276,0.082 1.1538,0.14944 1.53303,0.19767 0.80157,0.10195 1.32074,0.20892 1.55947,0.32453 0.24187,0.0872 0.44749,0.24135 0.61711,0.46264 3.87057,6.48942 7.93326,12.93029 12.18633,19.31396 z"
           style="font-style:normal;font-variant:normal;font-weight:bold;font-stretch:normal;font-size:42.6667px;font-family:Athelas;-inkscape-font-specification:'Athelas Bold'"
           id="path1899"
           inkscape:original-d="m 195.40744,-813.02027 v -15.14668 q 0,-0.93867 -0.64001,-1.32267 -0.64,-0.384 -2.26133,-0.59733 -0.55467,-0.128 -0.55467,-0.81067 0,-0.128 0,-0.34133 0,-0.21334 0.0853,-0.42667 1.06666,0.128 2.09066,0.17067 1.024,0.0427 2.38934,0.0427 1.36533,0 2.34667,-0.0427 0.98133,-0.0427 1.96267,-0.17067 0.0427,0.21333 0.0427,0.42667 0.0427,0.21333 0.0427,0.34133 0,0.72533 -0.512,0.81067 -1.408,0.21333 -1.92,0.59733 -0.512,0.384 -0.512,1.23734 v 24.96001 q -0.17067,0.0427 -0.59734,0.0427 -0.384,0.0427 -0.512,0.0427 -0.29866,0 -0.64,-0.17067 -0.34133,-0.128 -0.72533,-0.59733 l -16.81068,-21.33335 v 18.43201 q 0,0.42667 0.0427,0.72534 0.0853,0.256 0.34133,0.46933 0.29867,0.17067 0.81067,0.34133 0.55466,0.128 1.45066,0.29867 0.21334,0.0427 0.34134,0.21333 0.17066,0.128 0.17066,0.59734 0,0.29866 -0.0853,0.72533 -1.06667,-0.0853 -2.00533,-0.17067 -0.93867,-0.0427 -2.176,-0.0427 -1.23734,0 -2.38934,0.0427 -1.10933,0.0853 -2.048,0.17067 -0.0853,-0.17067 -0.0853,-0.384 0,-0.21333 0,-0.34133 0,-0.42667 0.128,-0.59734 0.17066,-0.17066 0.384,-0.21333 1.536,-0.256 2.048,-0.64 0.512,-0.384 0.512,-1.19467 v -21.58935 q 0,-0.68267 -0.46934,-1.024 -0.42666,-0.384 -2.00533,-0.59733 -0.512,-0.128 -0.512,-0.81067 0,-0.0853 0,-0.17067 0,-0.128 0.0427,-0.256 l 0.0427,-0.34133 q 0.59734,0.0427 1.152,0.0853 0.55467,0 1.10934,0.0427 0.93866,0.0427 1.87733,0.0853 0.98134,0 1.57867,0 1.23733,0 1.62133,0.128 0.384,0.0853 0.68267,0.384 z" />
        <path
           d="m 211.96818,-792.57959 c -0.0148,0.28405 -0.0128,0.52622 0.006,0.7266 0.0498,0.17348 0.15929,0.33584 0.32847,0.48695 0.19857,0.1526 0.47164,0.29471 0.81924,0.42589 0.37822,0.10418 0.87517,0.21398 1.48959,0.32795 0.29186,0.0705 0.42829,0.31865 0.40887,0.74488 -0.004,0.0852 -0.0245,0.21243 -0.0618,0.38154 -0.008,0.17048 -0.029,0.31186 -0.0638,0.42416 -0.29115,-0.0309 -2.75843,-0.28939 -3.04958,-0.32029 -1.06284,-0.084 -2.00471,-0.15095 -2.83242,-0.19911 -0.85698,-0.0499 -1.8155,-0.0937 -2.88065,-0.13356 -2.5965,-0.0281 -0.42531,-0.005 -3.02181,-0.0327 -0.051,-0.11766 -0.0704,-0.26159 -0.0584,-0.43182 0.0121,-0.17022 0.0211,-0.29789 0.0271,-0.383 0.0321,-0.45395 0.19639,-0.6846 0.49246,-0.69242 0.62347,-0.042 1.1151,-0.0944 1.47342,-0.15593 0.38987,-0.088 0.67759,-0.19751 0.86311,-0.32794 0.18555,-0.13045 0.31309,-0.27901 0.38274,-0.44553 0.0715,-0.19493 0.11623,-0.43429 0.1344,-0.71814 l 1.36596,-21.3303 c 0.0182,-0.28382 0.005,-0.51271 -0.0402,-0.68658 -0.0431,-0.20228 -0.14391,-0.37975 -0.30222,-0.53254 -0.15832,-0.15281 -0.41596,-0.2836 -0.77293,-0.39293 -0.32729,-0.1359 -0.78039,-0.26616 -1.35985,-0.39216 -0.27283,-0.1046 -0.39496,-0.35565 -0.36685,-0.75284 0.006,-0.0851 0.0151,-0.21278 0.0271,-0.383 0.012,-0.17022 0.0509,-0.3243 0.1164,-0.46223 0.8843,0.11937 1.82582,0.24022 2.82237,0.3612 0.99831,0.0926 1.90202,0.16156 2.70797,0.20842 0.77799,0.0452 1.66998,0.0808 2.67216,0.10461 1.03153,-0.003 1.99494,-0.0134 2.88698,-0.0295 0.0213,0.14333 0.0281,0.30024 0.0203,0.47071 0.0201,0.17176 0.0282,0.30023 0.0243,0.38548 -0.0181,0.39778 -0.16861,0.633 -0.45165,0.70526 -0.59017,0.058 -1.06929,0.13422 -1.43806,0.22985 -0.33931,0.0686 -0.61039,0.16867 -0.81331,0.30064 -0.17495,0.1334 -0.29565,0.29799 -0.36197,0.4939 -0.0369,0.16894 -0.0628,0.39547 -0.0776,0.67949 z"
           style="font-style:normal;font-variant:normal;font-weight:bold;font-stretch:normal;font-size:42.6667px;font-family:Athelas;-inkscape-font-specification:'Athelas Bold'"
           id="path1901"
           inkscape:original-d="m 213.01478,-806.87627 q 0,0.42667 0.0427,0.72534 0.0853,0.256 0.34133,0.46933 0.29867,0.21333 0.81067,0.384 0.55467,0.128 1.45067,0.256 0.42666,0.0853 0.42666,0.72533 0,0.128 -0.0427,0.384 0,0.256 -0.0427,0.42667 -1.36533,-0.0853 -2.944,-0.17067 -1.536,-0.0427 -2.73067,-0.0427 -1.23734,0 -2.77334,0.0427 -1.536,0.0853 -2.90133,0.17067 -0.0853,-0.17067 -0.0853,-0.42667 0,-0.256 0,-0.384 0,-0.68266 0.42667,-0.72533 0.896,-0.128 1.408,-0.256 0.55467,-0.17067 0.81067,-0.384 0.256,-0.21333 0.34133,-0.46933 0.0853,-0.29867 0.0853,-0.72534 v -21.37601 q 0,-0.42667 -0.0853,-0.68267 -0.0853,-0.29867 -0.34133,-0.512 -0.256,-0.21334 -0.81067,-0.34134 -0.512,-0.17066 -1.408,-0.29866 -0.42667,-0.128 -0.42667,-0.72534 0,-0.128 0,-0.384 0,-0.256 0.0853,-0.46933 1.36533,0.0853 2.90133,0.17067 1.536,0.0427 2.77334,0.0427 1.19467,0 2.73067,-0.0427 1.57867,-0.0853 2.944,-0.17067 0.0427,0.21333 0.0427,0.46933 0.0427,0.256 0.0427,0.384 0,0.59734 -0.42666,0.72534 -0.896,0.128 -1.45067,0.29866 -0.512,0.128 -0.81067,0.34134 -0.256,0.21333 -0.34133,0.512 -0.0427,0.256 -0.0427,0.68267 z" />
        <path
           d="m 242.02087,-798.10654 -0.17238,-15.14534 c -0.007,-0.62573 -0.2223,-1.06403 -0.64447,-1.31581 -0.42252,-0.25199 -1.16435,-0.44366 -2.22701,-0.58052 -0.36375,-0.0835 -0.54617,-0.35314 -0.54791,-0.8082 -3.3e-4,-0.0853 -7.7e-4,-0.19911 -0.001,-0.34132 -5.5e-4,-0.14222 0.0268,-0.28455 0.0819,-0.42699 0.69635,0.0825 1.37907,0.13501 2.04771,0.15769 0.66821,0.0227 1.44913,0.0288 2.33993,0.0164 0.89071,-0.0123 1.65741,-0.0398 2.2968,-0.0804 0.63992,-0.0406 1.27915,-0.11102 1.91731,-0.2112 0.0312,0.14153 0.0484,0.28339 0.0517,0.42557 0.0312,0.14154 0.0478,0.25494 0.0498,0.34026 0.0113,0.48339 -0.14975,0.75756 -0.48378,0.82195 -0.91874,0.16279 -1.54342,0.37315 -1.87466,0.63536 -0.33093,0.26197 -0.49213,0.67721 -0.48248,1.24599 l 0.42363,24.956 c -0.11786,0.0304 -0.32494,0.0482 -0.62092,0.0528 -0.26586,0.0326 -0.44353,0.0494 -0.53223,0.0507 -0.20724,0.003 -0.43012,-0.0508 -0.66837,-0.16145 -0.23788,-0.0822 -0.49195,-0.27819 -0.7616,-0.58798 -5.90532,-7.04331 -11.55047,-14.1962 -16.93254,-21.44419 l -0.46272,18.42506 c -0.007,0.28435 0.001,0.52638 0.0259,0.72617 0.0545,0.17207 0.16835,0.33141 0.34158,0.47787 0.20331,0.11873 0.48048,0.23918 0.83147,0.36088 0.3806,0.0938 0.88058,0.20444 1.49705,0.33008 0.14688,0.0313 0.26349,0.10462 0.34988,0.22 0.11639,0.0875 0.17181,0.28766 0.16611,0.60047 -0.004,0.19904 -0.0376,0.44027 -0.10193,0.72354 -0.73831,-0.0705 -1.43256,-0.14192 -2.08158,-0.21363 -0.65029,-0.0433 -1.40295,-0.076 -2.2607,-0.0996 -0.85735,-0.0236 -1.68533,-0.0345 -2.48443,-0.0322 -0.77104,0.0317 -1.48134,0.0634 -2.13451,0.096 -0.0549,-0.11589 -0.0796,-0.2449 -0.0743,-0.38701 0.005,-0.14211 0.01,-0.2558 0.0128,-0.34107 0.0106,-0.28421 0.0623,-0.48154 0.15501,-0.59193 0.12215,-0.1093 0.25738,-0.17548 0.40577,-0.19855 1.06689,-0.13199 1.78145,-0.32296 2.14249,-0.56733 0.36138,-0.24461 0.54995,-0.6373 0.56653,-1.17746 l 0.66238,-21.57773 c 0.014,-0.45487 -0.12959,-0.80067 -0.42996,-1.03784 -0.27179,-0.265 -0.92146,-0.48427 -1.94962,-0.66369 -0.33207,-0.0974 -0.48934,-0.37372 -0.47242,-0.82846 0.002,-0.0568 0.004,-0.11367 0.006,-0.17054 0.003,-0.0853 0.0203,-0.17002 0.0513,-0.25425 0.0182,-0.11318 0.0363,-0.22635 0.0544,-0.33953 0.38856,0.0429 0.76298,0.0846 1.1239,0.12552 0.36179,0.0125 0.7231,0.0387 1.08404,0.0788 0.61145,0.0481 1.22306,0.0949 1.83482,0.14041 0.63278,0.0177 1.16315,0.0312 1.54539,0.0406 0.80787,0.0198 1.33529,0.0734 1.58459,0.16409 0.24951,0.0621 0.46978,0.19455 0.66106,0.39744 4.5115,6.0621 9.20882,12.0565 14.09021,17.97458 z"
           style="font-style:normal;font-variant:normal;font-weight:bold;font-stretch:normal;font-size:42.6667px;font-family:Athelas;-inkscape-font-specification:'Athelas Bold'"
           id="path1903"
           inkscape:original-d="m 242.1908,-813.02027 v -15.14668 q 0,-0.93867 -0.64,-1.32267 -0.64,-0.384 -2.26133,-0.59733 -0.55467,-0.128 -0.55467,-0.81067 0,-0.128 0,-0.34133 0,-0.21334 0.0853,-0.42667 1.06667,0.128 2.09067,0.17067 1.024,0.0427 2.38934,0.0427 1.36533,0 2.34666,-0.0427 0.98134,-0.0427 1.96267,-0.17067 0.0427,0.21333 0.0427,0.42667 0.0427,0.21333 0.0427,0.34133 0,0.72533 -0.512,0.81067 -1.40801,0.21333 -1.92001,0.59733 -0.512,0.384 -0.512,1.23734 v 24.96001 q -0.17066,0.0427 -0.59733,0.0427 -0.384,0.0427 -0.512,0.0427 -0.29867,0 -0.64,-0.17067 -0.34133,-0.128 -0.72533,-0.59733 l -16.81068,-21.33335 v 18.43201 q 0,0.42667 0.0427,0.72534 0.0853,0.256 0.34134,0.46933 0.29866,0.17067 0.81066,0.34133 0.55467,0.128 1.45067,0.29867 0.21334,0.0427 0.34134,0.21333 0.17066,0.128 0.17066,0.59734 0,0.29866 -0.0853,0.72533 -1.06667,-0.0853 -2.00534,-0.17067 -0.93866,-0.0427 -2.176,-0.0427 -1.23733,0 -2.38933,0.0427 -1.10934,0.0853 -2.048,0.17067 -0.0853,-0.17067 -0.0853,-0.384 0,-0.21333 0,-0.34133 0,-0.42667 0.128,-0.59734 0.17067,-0.17066 0.384,-0.21333 1.536,-0.256 2.048,-0.64 0.512,-0.384 0.512,-1.19467 v -21.58935 q 0,-0.68267 -0.46933,-1.024 -0.42667,-0.384 -2.00533,-0.59733 -0.512,-0.128 -0.512,-0.81067 0,-0.0853 0,-0.17067 0,-0.128 0.0427,-0.256 l 0.0427,-0.34133 q 0.59733,0.0427 1.152,0.0853 0.55467,0 1.10933,0.0427 0.93867,0.0427 1.87734,0.0853 0.98133,0 1.57867,0 1.23733,0 1.62133,0.128 0.384,0.0853 0.68267,0.384 z" />
        <path
           d="m 250.23917,-802.83966 c -0.0583,-1.9901 0.26013,-3.86343 0.94262,-5.62025 0.71092,-1.75792 1.68962,-3.31282 2.93171,-4.66833 1.24231,-1.35576 2.69546,-2.44 4.36299,-3.25832 1.69435,-0.84814 3.51035,-1.32696 5.46017,-1.44075 2.00554,-0.11705 3.89321,0.11652 5.67364,0.7051 1.78015,0.58849 3.35053,1.46798 4.7136,2.6445 1.3909,1.17412 2.52975,2.60629 3.41266,4.30079 0.88278,1.69426 1.41817,3.57422 1.59535,5.64155 0.16991,1.9825 -0.0561,3.88522 -0.68897,5.70663 -0.60641,1.7907 -1.52653,3.39222 -2.76516,4.80055 -1.24066,1.37978 -2.7444,2.51893 -4.51002,3.41116 -1.76741,0.86379 -3.68684,1.35893 -5.74793,1.48045 -2.11999,0.12498 -4.11513,-0.12583 -5.97349,-0.74864 -1.85863,-0.6229 -3.47338,-1.55144 -4.84023,-2.77951 -1.36713,-1.22832 -2.45393,-2.69954 -3.26408,-4.40968 -0.81122,-1.7389 -1.24121,-3.66096 -1.30286,-5.76525 z m 15.91045,11.45028 c 1.23129,-0.0741 2.32919,-0.40059 3.2898,-0.97703 0.95884,-0.60488 1.7556,-1.38672 2.39003,-2.34359 0.66362,-0.95905 1.1374,-2.06242 1.42349,-3.30923 0.31505,-1.249 0.41839,-2.56787 0.31423,-3.95685 -0.15089,-2.01224 -0.49221,-3.86843 -1.01792,-5.56791 -0.49731,-1.70167 -1.18658,-3.14789 -2.06404,-4.3395 -0.85144,-1.22218 -1.88883,-2.14805 -3.11248,-2.78068 -1.19775,-0.66299 -2.56236,-0.94851 -4.10115,-0.86111 -0.9793,0.0556 -1.91768,0.33379 -2.81894,0.8352 -0.90264,0.47299 -1.68499,1.15088 -2.34865,2.03526 -0.66488,0.85584 -1.18457,1.88902 -1.55791,3.10014 -0.37329,1.21093 -0.53112,2.5697 -0.46852,4.07524 0.0874,2.10277 0.3682,4.03991 0.8492,5.81273 0.50985,1.77142 1.18713,3.29222 2.03468,4.56227 0.8752,1.24003 1.9186,2.19951 3.12885,2.87618 1.20852,0.64814 2.56414,0.9288 4.05933,0.83888 z"
           style="font-style:normal;font-variant:normal;font-weight:bold;font-stretch:normal;font-size:42.6667px;font-family:Athelas;-inkscape-font-specification:'Athelas Bold'"
           id="path1905"
           inkscape:original-d="m 250.38481,-817.58561 q 0,-2.98667 1.10934,-5.58934 1.152,-2.60267 3.11467,-4.56533 1.96267,-1.96267 4.56533,-3.07201 2.64534,-1.152 5.63201,-1.152 3.072,0 5.71734,1.06667 2.64533,1.06667 4.56533,2.98667 1.96267,1.92 3.07201,4.56534 1.10933,2.64533 1.10933,5.76 0,2.98667 -1.152,5.632 -1.10934,2.60267 -3.072,4.56534 -1.96267,1.92 -4.60801,3.072 -2.64533,1.10934 -5.632,1.10934 -3.072,0 -5.71734,-1.06667 -2.64533,-1.06667 -4.56534,-2.98667 -1.92,-1.92 -3.02933,-4.52267 -1.10934,-2.64533 -1.10934,-5.80267 z m 15.06135,12.16001 q 1.792,0 3.24267,-0.768 1.45067,-0.81067 2.47467,-2.176 1.06666,-1.36534 1.62133,-3.20001 0.59733,-1.83466 0.59733,-3.92533 0,-3.02934 -0.59733,-5.63201 -0.55467,-2.60266 -1.74933,-4.48 -1.152,-1.92 -2.94401,-2.98667 -1.74933,-1.10933 -4.096,-1.10933 -1.49333,0 -2.90133,0.68266 -1.40801,0.64001 -2.47467,1.92001 -1.06667,1.23733 -1.70667,3.02933 -0.64,1.792 -0.64,4.05334 0,3.15733 0.59733,5.84534 0.64,2.688 1.792,4.65067 1.19467,1.92 2.90134,3.02933 1.70667,1.06667 3.88267,1.06667 z" />
        <path
           d="m 292.56049,-795.05445 c 0.0301,0.28272 0.0702,0.52147 0.12032,0.71629 0.0762,0.16346 0.20904,0.3066 0.39871,0.42932 0.21871,0.11961 0.50879,0.21725 0.87019,0.2926 0.38728,0.0439 0.89156,0.075 1.51179,0.0923 0.29716,0.0244 0.46946,0.24836 0.51667,0.67227 0.009,0.0848 0.009,0.21357 -0.001,0.38635 0.0189,0.16955 0.02,0.31246 0.003,0.42873 -0.94184,0.0471 -1.94968,0.0999 -3.03778,0.15802 -1.05416,0.0832 -1.98861,0.16551 -2.80694,0.24867 -0.84761,0.0861 -1.79426,0.1949 -2.84451,0.32534 0.31978,-0.0485 -3.28705,0.50016 -2.96727,0.45171 -0.069,-0.10785 -0.11122,-0.24669 -0.12685,-0.41654 -0.0156,-0.16984 -0.0274,-0.29722 -0.0352,-0.38214 -0.0417,-0.45292 0.0822,-0.70689 0.3714,-0.76221 0.60485,-0.14163 1.07857,-0.27214 1.42024,-0.39022 0.36833,-0.14922 0.63302,-0.30323 0.79415,-0.46155 0.16116,-0.15833 0.26254,-0.32525 0.30426,-0.50066 0.0389,-0.20372 0.0446,-0.44703 0.0171,-0.72999 l -2.06996,-21.26303 c -0.0275,-0.28293 -0.0776,-0.50657 -0.15014,-0.67087 -0.0753,-0.19261 -0.20379,-0.35147 -0.38545,-0.47667 -0.18166,-0.12524 -0.45839,-0.21271 -0.83022,-0.2629 -0.34665,-0.0812 -0.8173,-0.13641 -1.41255,-0.16673 -0.28759,-0.0589 -0.44944,-0.2867 -0.48592,-0.68299 -0.008,-0.0849 -0.0195,-0.2123 -0.0352,-0.38214 -0.0156,-0.16984 -0.002,-0.3281 0.0406,-0.47478 0.8974,-0.0259 1.85153,-0.059 2.86112,-0.10029 1.00662,-0.0695 1.91573,-0.14646 2.72442,-0.2291 0.78082,-0.0798 1.67304,-0.18683 2.67405,-0.32231 1.02572,-0.16664 1.98318,-0.3288 2.86893,-0.48485 0.0436,0.13817 0.0749,0.29204 0.0938,0.46159 0.0468,0.16644 0.0749,0.29202 0.0844,0.37681 0.0441,0.39562 -0.069,0.65148 -0.33924,0.7673 -0.57796,0.14999 -1.04252,0.30081 -1.39409,0.45341 -0.32656,0.12127 -0.58025,0.26295 -0.7611,0.42533 -0.15284,0.15937 -0.2468,0.34095 -0.28178,0.54483 -0.01,0.17261 4e-5,0.4003 0.0301,0.68301 z"
           style="font-style:normal;font-variant:normal;font-weight:bold;font-stretch:normal;font-size:42.6667px;font-family:Athelas;-inkscape-font-specification:'Athelas Bold'"
           id="path1907"
           inkscape:original-d="m 291.31484,-806.87627 q 0,0.42667 0.0427,0.72534 0.0853,0.256 0.34134,0.46933 0.29866,0.21333 0.81066,0.384 0.55467,0.128 1.45067,0.256 0.42667,0.0853 0.42667,0.72533 0,0.128 -0.0427,0.384 0,0.256 -0.0427,0.42667 -1.36534,-0.0853 -2.94401,-0.17067 -1.536,-0.0427 -2.73066,-0.0427 -1.23734,0 -2.77334,0.0427 -1.536,0.0853 -2.90134,0.17067 -0.0853,-0.17067 -0.0853,-0.42667 0,-0.256 0,-0.384 0,-0.68266 0.42667,-0.72533 0.896,-0.128 1.408,-0.256 0.55467,-0.17067 0.81067,-0.384 0.256,-0.21333 0.34133,-0.46933 0.0853,-0.29867 0.0853,-0.72534 v -21.37601 q 0,-0.42667 -0.0853,-0.68267 -0.0853,-0.29867 -0.34133,-0.512 -0.256,-0.21334 -0.81067,-0.34134 -0.512,-0.17066 -1.408,-0.29866 -0.42667,-0.128 -0.42667,-0.72534 0,-0.128 0,-0.384 0,-0.256 0.0853,-0.46933 1.36534,0.0853 2.90134,0.17067 1.536,0.0427 2.77334,0.0427 1.19466,0 2.73066,-0.0427 1.57867,-0.0853 2.94401,-0.17067 0.0427,0.21333 0.0427,0.46933 0.0427,0.256 0.0427,0.384 0,0.59734 -0.42667,0.72534 -0.896,0.128 -1.45067,0.29866 -0.512,0.128 -0.81066,0.34134 -0.256,0.21333 -0.34134,0.512 -0.0427,0.256 -0.0427,0.68267 z" />
        <path
           d="m 315.55374,-815.74261 c -0.24135,0.12102 -0.50297,0.20172 -0.78473,0.24202 -0.39446,0.0564 -0.68626,0.026 -0.87523,-0.0908 -0.19297,-0.14502 -0.32948,-0.29812 -0.40965,-0.45917 -0.87416,-1.51399 -1.8775,-2.55105 -3.01096,-3.11242 -1.10568,-0.56534 -2.50962,-0.73237 -4.21635,-0.5069 -1.34291,0.1774 -2.44584,0.66343 -3.31295,1.46157 -0.84261,0.76632 -1.18167,1.82556 -1.01306,3.18021 0.12997,1.04421 0.58759,1.84723 1.37583,2.40706 0.81288,0.528 1.78855,0.96275 2.92699,1.30209 1.16675,0.33564 2.40463,0.64507 3.71353,0.92723 1.33728,0.27832 2.5927,0.67913 3.76725,1.20385 1.20288,0.52071 2.23561,1.24968 3.09809,2.18908 0.89073,0.93504 1.45743,2.21851 1.69493,3.85136 0.15562,1.06988 0.12097,2.13875 -0.10629,3.20647 -0.22725,1.06769 -0.68812,2.05392 -1.38458,2.95746 -0.70045,0.87533 -1.64038,1.63972 -2.82039,2.29045 -1.18371,0.62245 -2.64859,1.05095 -4.39148,1.28006 -1.91724,0.25203 -3.65893,0.27235 -5.21971,0.0647 -1.56415,-0.23581 -2.86914,-0.53758 -3.91344,-0.90056 -0.23135,-1.2039 -0.51699,-2.37281 -0.856,-3.50678 -0.31344,-1.16561 -0.64988,-2.28573 -1.00891,-3.36025 0.27423,-0.14661 0.59802,-0.24195 0.97156,-0.28624 0.3448,-0.0409 0.61177,-0.001 0.80114,0.11932 0.18596,0.0923 0.35514,0.28678 0.50764,0.58349 0.50328,1.0279 1.0344,1.90878 1.59323,2.64274 0.55534,0.70571 1.16878,1.27488 1.84006,1.70718 0.66771,0.40405 1.40758,0.66937 2.21867,0.79527 0.84001,0.1222 1.78214,0.11531 2.82472,-0.0219 0.89778,-0.11813 1.65003,-0.33357 2.2559,-0.64489 0.60212,-0.33952 1.07812,-0.73463 1.4282,-1.18459 0.35008,-0.44998 0.58864,-0.95675 0.71613,-1.52004 0.12748,-0.5633 0.1517,-1.12674 0.0733,-1.69027 -0.16845,-1.21155 -0.65883,-2.10558 -1.46773,-2.68339 -0.7844,-0.61012 -1.73552,-1.06892 -2.85372,-1.37853 -1.09348,-0.34165 -2.27933,-0.63 -3.55819,-0.8667 -1.25388,-0.26857 -2.4472,-0.64842 -3.57884,-1.13868 -1.1067,-0.52207 -2.07455,-1.23542 -2.90332,-2.13846 -0.80404,-0.93503 -1.30347,-2.24997 -1.50396,-3.94459 -0.13364,-1.12952 -0.0597,-2.19788 0.2192,-3.20484 0.30362,-1.03861 0.80473,-1.95818 1.50214,-2.75974 0.69404,-0.82989 1.55819,-1.52446 2.59329,-2.08574 1.06307,-0.56484 2.30409,-0.94006 3.72636,-1.12857 1.17129,-0.15525 2.35939,-0.18666 3.56619,-0.0943 1.2349,0.0885 2.64714,0.32169 4.24135,0.69681 0.17666,0.83674 0.39768,1.78259 0.66329,2.83648 0.28968,1.02191 0.57981,1.943 0.87046,2.76349 z"
           style="font-style:normal;font-variant:normal;font-weight:bold;font-stretch:normal;font-size:42.6667px;font-family:Athelas;-inkscape-font-specification:'Athelas Bold'"
           id="path1909"
           inkscape:original-d="m 316.39486,-824.54028 q -0.384,0.128 -0.81067,0.128 -0.59734,0 -0.85334,-0.21334 -0.256,-0.256 -0.34133,-0.512 -0.98133,-2.432 -2.56,-3.49867 -1.536,-1.06666 -4.13867,-1.06666 -2.048,0 -3.49867,1.024 -1.408,0.98133 -1.408,3.02933 0,1.57867 1.06667,2.56001 1.10933,0.93866 2.73066,1.664 1.66401,0.72533 3.54134,1.408 1.92,0.68267 3.54134,1.70667 1.664,1.024 2.73067,2.60266 1.10933,1.57867 1.10933,4.05334 0,1.62134 -0.55467,3.15734 -0.55466,1.536 -1.74933,2.73067 -1.19467,1.152 -3.02934,1.87733 -1.83467,0.68267 -4.39467,0.68267 -2.816,0 -5.03467,-0.59734 -2.21867,-0.64 -3.66933,-1.36533 -0.128,-1.83467 -0.42667,-3.584 -0.256,-1.792 -0.59733,-3.45601 0.42666,-0.17066 0.98133,-0.17066 0.512,0 0.768,0.21333 0.256,0.17067 0.42667,0.64 0.55466,1.62134 1.23733,2.816 0.68267,1.152 1.57867,1.92 0.896,0.72534 2.048,1.06667 1.19467,0.34134 2.73067,0.34134 1.32267,0 2.26133,-0.34134 0.93867,-0.384 1.53601,-0.98133 0.59733,-0.59734 0.896,-1.408 0.29866,-0.81067 0.29866,-1.664 0,-1.83467 -1.06666,-2.85867 -1.02401,-1.06667 -2.60267,-1.74934 -1.536,-0.72533 -3.37067,-1.32267 -1.792,-0.64 -3.37067,-1.57866 -1.536,-0.98134 -2.60267,-2.47467 -1.024,-1.536 -1.024,-4.096 0,-1.70667 0.59733,-3.15734 0.64,-1.49333 1.83467,-2.56 1.19467,-1.10934 2.85867,-1.74934 1.70667,-0.64 3.88267,-0.64 1.792,0 3.584,0.384 1.83467,0.384 4.13867,1.28 0.0853,1.28 0.256,2.90134 0.21334,1.57867 0.46934,2.85867 z" />
        <path
           d="m 328.40457,-822.54598 1.63979,10.15643 c 1.99627,-0.32235 3.99161,-0.65169 5.98601,-0.98758 0.53754,-0.0905 0.86963,-0.36339 0.99607,-0.81783 0.12171,-0.48258 0.16958,-1.22682 0.14341,-2.23288 -0.01,-0.22927 0.0507,-0.38395 0.18203,-0.46409 0.12657,-0.1082 0.30254,-0.18154 0.52796,-0.22012 0.0845,-0.0145 0.21373,-0.0221 0.38762,-0.0231 0.19725,-0.0338 0.34053,-0.044 0.4299,-0.0305 0.0546,0.65484 0.12839,1.42189 0.22126,2.30117 0.1163,0.84646 0.22495,1.56402 0.32614,2.15317 0.0867,0.50486 0.20447,1.10563 0.35331,1.80197 0.14403,0.66826 0.33337,1.43005 0.56817,2.28486 -0.0757,0.0707 -0.21061,0.13726 -0.40487,0.19948 -0.0548,0.009 -0.32917,0.0564 -0.38396,0.0658 -0.51203,0.0876 -0.81568,-0.063 -0.91096,-0.4509 -0.35204,-1.03713 -0.67226,-1.71895 -0.96101,-2.04524 -0.26519,-0.3592 -0.63859,-0.49797 -1.12058,-0.41681 -1.99899,0.33664 -3.9991,0.66671 -6.00028,0.98979 l 1.52412,9.44001 c 0.0952,0.58991 0.53201,0.92334 1.31107,0.99853 0.77811,0.0751 2.06011,-0.0328 3.83905,-0.32988 0.60277,-0.10066 1.20536,-0.20191 1.80779,-0.30374 0.86059,-0.14548 1.55845,-0.38013 2.09307,-0.70277 0.56334,-0.32759 1.03999,-0.72753 1.42985,-1.19942 0.38502,-0.49995 0.70238,-1.04628 0.95222,-1.6388 0.24495,-0.62056 0.47948,-1.29726 0.70343,-2.0301 0.0511,-0.21125 0.23329,-0.34435 0.54666,-0.39956 0.14246,-0.0251 0.32079,-0.0132 0.53507,0.0357 3.7e-4,9e-5 0.64257,0.14625 0.64294,0.14634 -0.0172,0.2343 -0.0512,0.45711 -0.10204,0.66844 1e-5,-1.4e-4 -0.067,0.61898 -0.067,0.61884 -0.0881,0.33352 -0.14288,0.69003 -0.16425,1.06953 -0.0214,0.37949 -0.0552,0.68892 -0.10143,0.92828 -0.008,0.29033 -0.0224,0.62534 -0.0442,1.00482 0.002,0.34644 -0.0104,0.69541 -0.0372,1.04691 -0.003,0.31843 -0.0254,0.61134 -0.0672,0.87875 -0.013,0.26234 -0.0266,0.43813 -0.0405,0.52725 -0.0754,0.2444 -0.28535,0.39684 -0.62985,0.45704 -0.22953,0.0401 -0.56239,0.0838 -0.99787,0.1305 -0.43579,0.0468 -0.91416,0.10072 -1.43624,0.16176 -0.48835,0.0841 -0.99361,0.15623 -1.51572,0.21636 -0.52218,0.0601 -0.97,0.12161 -1.34384,0.1848 -3.26333,0.55159 -6.53203,1.08619 -9.80602,1.60197 -0.83736,0.13191 -1.80013,0.29674 -2.89386,0.49395 -1.0605,0.22086 -2.01827,0.42366 -2.87785,0.61044 -0.0747,-0.10387 -0.12479,-0.24021 -0.1502,-0.40904 -0.0296,-0.19696 -0.0508,-0.33764 -0.0635,-0.42205 -0.0635,-0.42208 0.047,-0.66881 0.33117,-0.74042 1.06624,-0.3621 1.8126,-0.69276 2.23858,-0.9884 0.45513,-0.30031 0.63866,-0.73193 0.55156,-1.29433 l -3.27309,-21.13296 c -0.0436,-0.28121 -0.12042,-0.49967 -0.23052,-0.65538 -0.11445,-0.18384 -0.30629,-0.31249 -0.57546,-0.38612 -0.24553,-0.10608 -0.57051,-0.17116 -0.97501,-0.19557 -0.38093,-0.0568 -0.87324,-0.0968 -1.47749,-0.12045 -0.29239,-0.0421 -0.4702,-0.27431 -0.53371,-0.69636 -0.0212,-0.14069 -0.0402,-0.26731 -0.0572,-0.37985 -0.0212,-0.1407 -0.0144,-0.28559 0.0202,-0.43469 1.21201,-0.0966 2.28223,-0.20332 3.20704,-0.3179 0.92486,-0.11457 1.72353,-0.22553 2.39288,-0.33129 2.86081,-0.45201 5.7216,-0.9192 8.5823,-1.4002 1.25561,-0.21112 2.32363,-0.43662 3.20181,-0.67401 0.90719,-0.24247 1.52603,-0.3932 1.86164,-0.45151 0.3069,-0.0533 0.55206,0.034 0.73564,0.26195 0.12286,0.20969 0.26608,0.6181 0.4297,1.22514 0.15871,0.57901 0.36437,1.17875 0.61723,1.79906 0.1674,0.46191 0.34647,0.90732 0.53726,1.33621 0.19074,0.4288 0.45504,0.94611 0.79305,1.55125 -0.13059,0.0807 -0.27524,0.16393 -0.43396,0.24957 -0.15873,0.0856 -0.32241,0.14314 -0.49099,0.1726 -0.30908,0.054 -0.55587,-0.033 -0.74023,-0.26091 -0.46396,-0.67036 -0.90764,-1.22888 -1.33139,-1.67549 -0.40056,-0.4795 -0.83728,-0.83738 -1.31026,-1.07376 -0.44982,-0.26926 -0.96633,-0.42621 -1.54979,-0.47122 -0.55553,-0.0498 -1.21066,-0.0108 -1.96601,0.11616 -1.86033,0.31275 -3.72084,0.61968 -5.5815,0.92042 z"
           style="font-style:normal;font-variant:normal;font-weight:bold;font-stretch:normal;font-size:42.6667px;font-family:Athelas;-inkscape-font-specification:'Athelas Bold'"
           id="path1911"
           inkscape:original-d="m 330.14886,-829.31895 v 10.28267 h 6.01601 q 0.81067,0 1.10933,-0.64 0.29867,-0.68267 0.512,-2.176 0.0427,-0.34133 0.256,-0.42667 0.21334,-0.128 0.55467,-0.128 0.128,0 0.384,0.0427 0.29867,0 0.42667,0.0427 -0.0853,0.98133 -0.17067,2.304 -0.0427,1.28 -0.0427,2.176 0,0.768 0.0427,1.83467 0.0427,1.024 0.17067,2.34667 -0.128,0.0853 -0.42667,0.128 -0.256,0 -0.384,0 -0.768,0 -0.81067,-0.59734 -0.256,-1.62133 -0.59733,-2.176 -0.29867,-0.59733 -1.024,-0.59733 h -6.01601 v 9.55734 q 0,0.896 1.10934,1.19467 1.10933,0.29866 3.75467,0.29866 h 1.792 q 1.28,0 2.13333,-0.34133 0.89601,-0.34134 1.57867,-0.93867 0.68267,-0.64 1.19467,-1.45067 0.512,-0.85333 1.024,-1.87733 0.128,-0.29867 0.59733,-0.29867 0.21334,0 0.51201,0.128 0.29866,0.128 0.59733,0.256 -0.0853,0.34134 -0.21333,0.64 -0.0853,0.29867 -0.17067,0.59734 -0.21333,0.46933 -0.34134,1.024 -0.128,0.55466 -0.256,0.896 -0.0853,0.42666 -0.21333,0.98133 -0.0853,0.512 -0.21333,1.024 -0.0853,0.46934 -0.21334,0.85334 -0.0853,0.384 -0.128,0.512 -0.17066,0.34133 -0.68266,0.34133 -0.34134,0 -0.98134,-0.0427 -0.64,-0.0427 -1.408,-0.0853 -0.72533,0 -1.49333,-0.0427 -0.768,-0.0427 -1.32267,-0.0427 h -9.68534 q -1.23733,0 -2.85867,0.0427 -1.57867,0.0853 -2.85867,0.17067 -0.0853,-0.17067 -0.0853,-0.42667 0,-0.29866 0,-0.42666 0,-0.64 0.42667,-0.68267 1.62133,-0.29867 2.304,-0.64 0.72533,-0.34133 0.72533,-1.19467 v -21.37601 q 0,-0.42667 -0.128,-0.68267 -0.128,-0.29867 -0.512,-0.46934 -0.34133,-0.21333 -0.93867,-0.34133 -0.55466,-0.17067 -1.45066,-0.34133 -0.42667,-0.128 -0.42667,-0.768 0,-0.21334 0,-0.384 0,-0.21334 0.0853,-0.42667 1.83467,0.128 3.24267,0.17067 1.408,0.0427 2.432,0.0427 h 8.74668 q 1.92,0 3.28533,-0.128 1.408,-0.128 1.92,-0.128 0.46934,0 0.68267,0.384 0.128,0.34134 0.21333,1.28 0.0853,0.896 0.29867,1.87734 0.128,0.72533 0.29867,1.408 0.17066,0.68267 0.512,1.664 -0.21334,0.0853 -0.46934,0.17067 -0.256,0.0853 -0.512,0.0853 -0.46933,0 -0.68266,-0.384 -0.512,-1.10933 -1.024,-1.87733 -0.46934,-0.81067 -1.10934,-1.28 -0.59733,-0.51201 -1.45067,-0.72534 -0.81066,-0.21333 -1.96266,-0.21333 z" />
        <path
           d="m 364.41571,-824.1744 c -0.23589,0.13322 -0.49408,0.22726 -0.77451,0.28208 -0.39259,0.0768 -0.68668,0.0616 -0.88217,-0.0452 -0.20093,-0.13475 -0.34573,-0.28048 -0.43445,-0.43711 -0.95483,-1.46616 -2.01654,-2.44863 -3.18562,-2.94797 -1.14126,-0.50478 -2.56278,-0.59462 -4.26728,-0.27257 -1.34119,0.2534 -2.4236,0.80312 -3.24965,1.65143 -0.80326,0.8151 -1.08197,1.89367 -0.83363,3.23693 0.19143,1.03544 0.69748,1.81034 1.51984,2.32333 0.84527,0.47978 1.84735,0.85734 3.00622,1.13147 1.18701,0.26883 2.44281,0.50859 3.76735,0.71872 1.35269,0.20474 2.62923,0.53784 3.83025,1.00009 1.22918,0.45677 2.29784,1.13159 3.20614,2.02572 0.93637,0.88844 1.56557,2.14151 1.88487,3.76 0.20921,1.06046 0.22903,2.12938 0.0582,3.20687 -0.17087,1.07747 -0.57731,2.08545 -1.22055,3.02327 -0.64866,0.90984 -1.53963,1.72172 -2.67345,2.43389 -1.13911,0.68418 -2.56615,1.19063 -4.27974,1.51586 -1.88505,0.35777 -3.60904,0.47745 -5.1685,0.36092 -1.56454,-0.1445 -2.87668,-0.36792 -3.93519,-0.66746 -0.30416,-1.18858 -0.66017,-2.33888 -1.06746,-3.45098 -0.38386,-1.14526 -0.78808,-2.24357 -1.21242,-3.29489 0.26399,-0.1633 0.58058,-0.27837 0.94989,-0.34535 0.3409,-0.0618 0.60924,-0.0384 0.80519,0.0706 0.19083,0.081 0.37117,0.26505 0.54105,0.55226 0.56363,0.99651 1.14534,1.84473 1.74506,2.54476 0.59456,0.67202 1.23803,1.20448 1.93022,1.59719 0.68698,0.36473 1.43682,0.58703 2.24892,0.66657 0.84062,0.0742 1.77461,0.0142 2.80096,-0.18056 0.88379,-0.16772 1.61775,-0.42389 2.20151,-0.7676 0.57844,-0.37166 1.02902,-0.79173 1.35189,-1.25972 0.32287,-0.46801 0.53229,-0.98673 0.6285,-1.55599 0.0962,-0.56926 0.09,-1.1332 -0.0181,-1.69183 -0.23253,-1.20104 -0.76816,-2.06803 -1.60508,-2.60189 -0.81415,-0.56736 -1.78705,-0.97425 -2.91904,-1.2219 -1.10909,-0.28101 -2.30818,-0.50271 -3.59779,-0.66609 -1.26653,-0.19665 -2.47981,-0.50655 -3.63909,-0.9293 -1.13624,-0.45598 -2.14632,-1.11026 -3.03,-1.9619 -0.86077,-0.88498 -1.44155,-2.16791 -1.74581,-3.84839 -0.20281,-1.12017 -0.19371,-2.19203 0.0257,-3.21524 0.2423,-1.05634 0.69096,-2.00582 1.34525,-2.84897 0.6492,-0.8712 1.47868,-1.61711 2.48895,-2.23895 1.0382,-0.62704 2.26752,-1.0741 3.68988,-1.34306 1.17136,-0.22148 2.36654,-0.31892 3.58663,-0.29246 1.24807,0.0211 2.68222,0.17848 4.30486,0.47034 0.21984,0.8265 0.48967,1.75946 0.80958,2.79826 0.34243,1.00553 0.67999,1.91043 1.01272,2.71485 z"
           style="font-style:normal;font-variant:normal;font-weight:bold;font-stretch:normal;font-size:42.6667px;font-family:Athelas;-inkscape-font-specification:'Athelas Bold'"
           id="path1913"
           inkscape:original-d="m 365.8449,-824.54028 q -0.384,0.128 -0.81067,0.128 -0.59733,0 -0.85333,-0.21334 -0.256,-0.256 -0.34134,-0.512 -0.98133,-2.432 -2.56,-3.49867 -1.536,-1.06666 -4.13867,-1.06666 -2.048,0 -3.49867,1.024 -1.408,0.98133 -1.408,3.02933 0,1.57867 1.06667,2.56001 1.10933,0.93866 2.73067,1.664 1.664,0.72533 3.54133,1.408 1.92001,0.68267 3.54134,1.70667 1.664,1.024 2.73067,2.60266 1.10933,1.57867 1.10933,4.05334 0,1.62134 -0.55466,3.15734 -0.55467,1.536 -1.74934,2.73067 -1.19467,1.152 -3.02933,1.87733 -1.83467,0.68267 -4.39467,0.68267 -2.81601,0 -5.03468,-0.59734 -2.21866,-0.64 -3.66933,-1.36533 -0.128,-1.83467 -0.42667,-3.584 -0.256,-1.792 -0.59733,-3.45601 0.42666,-0.17066 0.98133,-0.17066 0.512,0 0.768,0.21333 0.256,0.17067 0.42667,0.64 0.55467,1.62134 1.23733,2.816 0.68267,1.152 1.57867,1.92 0.896,0.72534 2.048,1.06667 1.19467,0.34134 2.73067,0.34134 1.32267,0 2.26134,-0.34134 0.93866,-0.384 1.536,-0.98133 0.59733,-0.59734 0.896,-1.408 0.29867,-0.81067 0.29867,-1.664 0,-1.83467 -1.06667,-2.85867 -1.024,-1.06667 -2.60267,-1.74934 -1.536,-0.72533 -3.37067,-1.32267 -1.792,-0.64 -3.37067,-1.57866 -1.536,-0.98134 -2.60267,-2.47467 -1.024,-1.536 -1.024,-4.096 0,-1.70667 0.59734,-3.15734 0.64,-1.49333 1.83466,-2.56 1.19467,-1.10934 2.85867,-1.74934 1.70667,-0.64 3.88267,-0.64 1.792,0 3.584,0.384 1.83467,0.384 4.13867,1.28 0.0853,1.28 0.256,2.90134 0.21334,1.57867 0.46934,2.85867 z" />
      </g>
      <g
         aria-label="DOUANES"
         transform="rotate(-21.869016,119.04243,128.73673)"
         id="text1253"
         style="font-style:normal;font-variant:normal;font-weight:normal;font-stretch:normal;font-size:44px;line-height:1.25;font-family:Athelas;-inkscape-font-specification:Athelas;text-align:center;letter-spacing:0.35px;word-spacing:0px;text-anchor:middle"
         inkscape:path-effect="#path-effect1893">
        <path
           d="m 477.76498,-488.33642 c -0.24473,1.71154 -0.77927,3.36753 -1.61599,4.96337 -0.83668,1.59576 -1.9843,2.98217 -3.45165,4.15022 -1.46245,1.13872 -3.24629,1.97008 -5.34949,2.47875 -2.09822,0.47974 -4.50442,0.47549 -7.19518,-0.0323 -3.09892,-0.58483 -6.19314,-1.21259 -9.2817,-1.88503 -0.78593,-0.17111 -1.70276,-0.35863 -2.76536,-0.56931 -1.03564,-0.17462 -2.02871,-0.34454 -2.97393,-0.50763 -0.033,-0.12837 -0.0325,-0.26388 0.001,-0.40657 0.034,-0.14267 0.0611,-0.25682 0.0815,-0.34242 0.0747,-0.31388 0.1673,-0.50301 0.27748,-0.56738 0.14694,-0.0858 0.29856,-0.12545 0.45499,-0.11883 0.90167,0.0612 1.6338,0.0336 2.19443,-0.079 0.59762,-0.13449 0.96327,-0.50327 1.09931,-1.10378 l 4.86908,-21.49243 c 0.12958,-0.57198 0.0126,-1.01941 -0.34902,-1.34333 -0.3279,-0.34657 -0.95299,-0.71604 -1.87483,-1.11619 -0.20639,-0.10937 -0.32335,-0.22789 -0.35109,-0.35516 -0.021,-0.15585 -0.004,-0.34787 0.0502,-0.57617 0.0204,-0.0856 0.0476,-0.19975 0.0815,-0.34243 0.034,-0.14268 0.0953,-0.2788 0.18387,-0.40839 0.55976,0.19437 1.05648,0.35677 1.48745,0.48757 0.46538,0.10876 0.88651,0.221 1.26382,0.33743 0.37723,0.11641 0.75804,0.21776 1.14227,0.30402 0.38412,0.0862 0.78247,0.17484 1.1945,0.26551 2.78877,0.61367 5.58851,1.18649 8.39831,1.72015 2.35316,0.44694 4.35188,1.18584 6.01259,2.23938 1.68786,1.05778 3.042,2.31088 4.06105,3.77307 1.04693,1.46599 1.76614,3.09775 2.14787,4.90068 0.41037,1.8068 0.48439,3.68255 0.20647,5.6262 z m -6.16415,-0.0919 c 0.36321,-2.25564 0.4135,-4.23807 0.16262,-5.94065 -0.25101,-1.70349 -0.78718,-3.14377 -1.60369,-4.32307 -0.78372,-1.20394 -1.86034,-2.16465 -3.23155,-2.89156 -1.33859,-0.75096 -2.92137,-1.30306 -4.75739,-1.66921 -0.8623,-0.17196 -1.72367,-0.34765 -2.58409,-0.52711 l -4.59937,22.12711 c -0.0597,0.28701 -0.0656,0.5402 -0.0176,0.75968 0.048,0.21945 0.19483,0.41444 0.44073,0.58457 0.24582,0.17006 0.60291,0.3328 1.07097,0.48691 0.46766,0.15398 1.10782,0.31197 1.91774,0.47027 3.904,0.76307 6.96341,0.26262 9.1184,-1.42046 2.19086,-1.68269 3.53335,-4.24164 4.08322,-7.65648 z"
           style="font-style:normal;font-variant:normal;font-weight:bold;font-stretch:normal;font-size:44px;font-family:Athelas;-inkscape-font-specification:'Athelas Bold'"
           id="path1307"
           inkscape:original-d="m 478.24691,-493.86161 q 0,2.596 -0.88,5.148 -0.88,2.552 -2.728,4.62 -1.848,2.024 -4.708,3.3 -2.86,1.232 -6.776,1.232 h -9.02 q -1.144,0 -2.684,0.044 -1.496,0.088 -2.86,0.176 -0.088,-0.176 -0.088,-0.396 0,-0.22 0,-0.352 0,-0.484 0.132,-0.616 0.176,-0.176 0.396,-0.22 1.276,-0.22 2.024,-0.572 0.792,-0.396 0.792,-1.32 v -22.044 q 0,-0.88 -0.66,-1.232 -0.616,-0.396 -2.156,-0.66 -0.352,-0.088 -0.44,-0.264 -0.088,-0.22 -0.088,-0.572 0,-0.132 0,-0.352 0,-0.22 0.088,-0.44 0.924,0.088 1.628,0.132 0.748,0 1.364,0.044 0.616,0.044 1.232,0.044 0.616,0 1.276,0 h 8.932 q 3.74,0 6.556,1.144 2.86,1.144 4.752,3.08 1.936,1.936 2.904,4.532 1.012,2.596 1.012,5.544 z m -6.072,0.836 q 0,-3.432 -0.792,-5.896 -0.792,-2.464 -2.332,-4.004 -1.496,-1.584 -3.784,-2.288 -2.244,-0.748 -5.148,-0.748 h -2.728 v 22.616 q 0,0.44 0.132,0.748 0.132,0.308 0.528,0.484 0.396,0.176 1.1,0.264 0.704,0.088 1.892,0.088 5.72,0 8.404,-3.036 2.728,-3.036 2.728,-8.228 z" />
        <path
           d="m 481.39013,-487.83716 c 0.26945,-2.03367 0.9013,-3.88679 1.87818,-5.56299 1.0058,-1.67274 2.24568,-3.09714 3.71443,-4.27889 1.46913,-1.18205 3.10317,-2.05688 4.90828,-2.63076 1.83692,-0.60015 3.73551,-0.80866 5.71364,-0.6281 2.0347,0.18571 3.89817,0.70729 5.6042,1.5732 1.70566,0.86572 3.16005,1.9951 4.36523,3.39672 1.23357,1.40315 2.17869,3.03229 2.82898,4.89225 0.65017,1.85961 0.92401,3.85899 0.80604,5.99806 -0.11313,2.05137 -0.618,3.96413 -1.52972,5.73375 -0.88018,1.74209 -2.05604,3.24427 -3.53333,4.49974 -1.47507,1.22595 -3.1875,2.16474 -5.13411,2.80771 -1.94412,0.61363 -3.99095,0.82372 -6.125,0.62579 -2.19501,-0.20359 -4.20288,-0.77603 -6.00809,-1.70874 -1.80525,-0.93272 -3.30903,-2.1411 -4.50644,-3.61468 -1.19774,-1.474 -2.0653,-3.15019 -2.60885,-5.02369 -0.53994,-1.90307 -0.65838,-3.92883 -0.37344,-6.07937 z m 14.38855,14.21102 c 1.27329,0.11579 2.44894,-0.0484 3.52095,-0.48993 1.07458,-0.47083 2.00886,-1.14828 2.80207,-2.02969 0.82344,-0.87925 1.47283,-1.93515 1.95094,-3.16594 0.50803,-1.22874 0.80912,-2.5606 0.90915,-3.99499 0.1449,-2.07786 0.0726,-4.02487 -0.20849,-5.83873 -0.252,-1.81192 -0.73541,-3.39156 -1.44478,-4.73913 -0.67852,-1.37502 -1.58719,-2.47538 -2.72572,-3.30532 -1.10793,-0.85711 -2.43892,-1.35482 -4.00208,-1.5011 -0.99481,-0.0931 -1.98252,0.0461 -2.96853,0.41765 -0.98289,0.34229 -1.87756,0.91111 -2.68657,1.70809 -0.80567,0.76767 -1.49452,1.73819 -2.06514,2.91255 -0.5705,1.17411 -0.94841,2.5329 -1.12668,4.07611 -0.24902,2.15565 -0.27559,4.17318 -0.0704,6.05618 0.23472,1.88615 0.68169,3.54385 1.34494,4.9735 0.69621,1.40339 1.61117,2.54757 2.74362,3.42886 1.13507,0.85186 2.48054,1.35128 4.02674,1.49189 z"
           style="font-style:normal;font-variant:normal;font-weight:bold;font-stretch:normal;font-size:44px;font-family:Athelas;-inkscape-font-specification:'Athelas Bold'"
           id="path1309"
           inkscape:original-d="m 481.88866,-493.86161 q 0,-3.08 1.144,-5.764 1.188,-2.684 3.212,-4.708 2.024,-2.024 4.708,-3.168 2.728,-1.188 5.808,-1.188 3.168,0 5.896,1.1 2.728,1.1 4.708,3.08 2.024,1.98 3.168,4.708 1.144,2.728 1.144,5.94 0,3.08 -1.188,5.808 -1.144,2.684 -3.168,4.708 -2.024,1.98 -4.752,3.168 -2.728,1.144 -5.808,1.144 -3.168,0 -5.896,-1.1 -2.728,-1.1 -4.708,-3.08 -1.98,-1.98 -3.124,-4.664 -1.144,-2.728 -1.144,-5.984 z m 15.532,12.54 q 1.848,0 3.344,-0.792 1.496,-0.836 2.552,-2.244 1.1,-1.408 1.672,-3.3 0.616,-1.892 0.616,-4.048 0,-3.124 -0.616,-5.808 -0.572,-2.684 -1.804,-4.62 -1.188,-1.98 -3.036,-3.08 -1.804,-1.144 -4.224,-1.144 -1.54,0 -2.992,0.704 -1.452,0.66 -2.552,1.98 -1.1,1.276 -1.76,3.124 -0.66,1.848 -0.66,4.18 0,3.256 0.616,6.028 0.66,2.772 1.848,4.796 1.232,1.98 2.992,3.124 1.76,1.1 4.004,1.1 z" />
        <path
           d="m 540.61162,-480.97063 c 0.0121,1.67326 -0.15509,3.21522 -0.50611,4.62676 -0.35114,1.38197 -0.97613,2.58935 -1.87935,3.61967 -0.87285,1.00059 -2.06909,1.78045 -3.58904,2.33225 -1.48884,0.55164 -3.37898,0.81729 -5.66104,0.78216 -2.70806,-0.0417 -4.89684,-0.39133 -6.55121,-1.02669 -1.62502,-0.63487 -2.87296,-1.47261 -3.74364,-2.50385 -0.83965,-1.05983 -1.37934,-2.2717 -1.62435,-3.63339 -0.24384,-1.39115 -0.33104,-2.86358 -0.26579,-4.41823 l 0.61298,-14.6062 c 0.0258,-0.61592 -0.14306,-1.04886 -0.50571,-1.29946 -0.36182,-0.28028 -1.11121,-0.51765 -2.24904,-0.71944 -0.31202,-0.0738 -0.45532,-0.36015 -0.43054,-0.8585 0.004,-0.088 0.0102,-0.20521 0.0175,-0.35179 0.007,-0.14658 0.0431,-0.29176 0.10737,-0.43554 0.82343,0.0991 1.69082,0.198 2.60136,0.29584 0.93942,0.0697 2.05466,0.12926 3.3394,0.17462 1.00006,0.0353 2.04409,0.0541 3.13166,0.0556 1.08723,-0.0279 2.06379,-0.0629 2.92223,-0.10264 0.0254,0.1474 0.0364,0.29448 0.0332,0.44125 0.0254,0.1474 0.0372,0.26511 0.0352,0.35318 -0.0109,0.49901 -0.17495,0.77449 -0.49211,0.82597 -1.18085,0.11988 -1.98951,0.30263 -2.42839,0.55489 -0.40972,0.25283 -0.62376,0.67229 -0.64115,1.25921 l -0.40431,13.64607 c -0.0905,3.05339 0.40626,5.38632 1.51112,7.00306 1.13295,1.61457 3.13079,2.45837 5.97603,2.49689 2.90517,0.0393 4.96699,-0.69153 6.17195,-2.15678 1.23763,-1.49765 1.8423,-3.91886 1.83526,-7.26671 l -0.0285,-13.51836 c -0.001,-0.58712 -0.20417,-1.01231 -0.60779,-1.27632 -0.40399,-0.26425 -1.16627,-0.46919 -2.28794,-0.62057 -0.34497,-0.0895 -0.51601,-0.36936 -0.51376,-0.83907 4.3e-4,-0.0881 9.9e-4,-0.20551 0.002,-0.3523 0.0294,-0.14665 0.0588,-0.2933 0.0881,-0.43995 0.83084,0.0922 1.59121,0.15261 2.27965,0.18225 0.71725,0.0297 1.47791,0.0432 2.28162,0.0399 0.9182,-0.004 1.73715,-0.0241 2.45434,-0.0596 0.71755,-0.0356 1.42046,-0.10186 2.10835,-0.19859 0.0307,0.14636 0.0471,0.2929 0.0491,0.43963 0.0307,0.14636 0.0467,0.26354 0.0479,0.35158 0.006,0.4695 -0.16239,0.75058 -0.50697,0.84276 -1.06425,0.13011 -1.79641,0.34127 -2.19775,0.6381 -0.40136,0.26732 -0.60036,0.69416 -0.59612,1.2812 0.0348,4.81374 0.0697,9.62747 0.10451,14.4412 z"
           style="font-style:normal;font-variant:normal;font-weight:bold;font-stretch:normal;font-size:44px;font-family:Athelas;-inkscape-font-specification:'Athelas Bold'"
           id="path1311"
           inkscape:original-d="m 540.87656,-490.42961 q 0,2.508 -0.528,4.62 -0.528,2.068 -1.848,3.608 -1.276,1.496 -3.476,2.332 -2.156,0.836 -5.456,0.836 -3.916,0 -6.336,-0.88 -2.376,-0.88 -3.696,-2.376 -1.276,-1.54 -1.716,-3.564 -0.44,-2.068 -0.44,-4.4 v -14.608 q 0,-0.924 -0.572,-1.276 -0.572,-0.396 -2.332,-0.616 -0.484,-0.088 -0.484,-0.836 0,-0.132 0,-0.352 0,-0.22 0.088,-0.44 1.276,0.088 2.684,0.176 1.452,0.044 3.432,0.044 1.54,0 3.212,-0.044 1.672,-0.088 2.992,-0.176 0.044,0.22 0.044,0.44 0.044,0.22 0.044,0.352 0,0.748 -0.484,0.836 -1.804,0.22 -2.464,0.616 -0.616,0.396 -0.616,1.276 v 13.64 q 0,4.576 1.672,6.952 1.716,2.376 5.852,2.376 4.224,0 5.984,-2.2 1.804,-2.244 1.804,-7.26 v -13.508 q 0,-0.88 -0.616,-1.276 -0.616,-0.396 -2.332,-0.616 -0.528,-0.132 -0.528,-0.836 0,-0.132 0,-0.352 0.044,-0.22 0.088,-0.44 1.276,0.132 2.332,0.176 1.1,0.044 2.332,0.044 1.408,0 2.508,-0.044 1.1,-0.044 2.156,-0.176 0.044,0.22 0.044,0.44 0.044,0.22 0.044,0.352 0,0.704 -0.528,0.836 -1.628,0.176 -2.244,0.616 -0.616,0.396 -0.616,1.276 z" />
        <path
           d="m 560.81156,-480.29749 c -3.11623,0.13162 -6.23462,0.24074 -9.3552,0.32545 -0.26172,0.75071 -0.52452,1.50128 -0.78841,2.2517 -0.46005,1.30777 -0.92354,2.61515 -1.39053,3.9221 -0.0868,0.14879 -0.14335,0.31152 -0.16946,0.4882 -0.0261,0.1767 -0.0382,0.30902 -0.0362,0.39702 0.007,0.32262 0.1638,0.58311 0.47013,0.78109 0.25053,0.14686 0.6768,0.2732 1.27838,0.37759 0,0 0,0 0,0 0.20588,0.0359 0.43237,0.0692 0.67939,0.0999 0.42337,0.0472 0.64218,0.31962 0.656,0.81811 0.006,0.20522 -0.0176,0.45534 -0.0699,0.75023 -0.0186,-8.2e-4 -1.20561,-0.0516 -1.22422,-0.0524 -0.0406,-0.002 -1.32464,-0.0539 -1.36527,-0.0556 -0.90834,-0.007 -1.80143,-0.002 -2.67947,0.0146 -0.60559,0.0117 -1.24121,0.0377 -1.90732,0.0777 -0.66625,0.0399 -1.40756,0.10913 -2.22551,0.20675 -0.0619,-0.11669 -0.0937,-0.24841 -0.0952,-0.39515 -0.002,-0.14674 -0.003,-0.26414 -0.004,-0.35218 -0.006,-0.55767 0.18755,-0.85325 0.58005,-0.88751 0.93471,-0.18777 1.59692,-0.38933 1.9858,-0.60092 0.41942,-0.21228 0.74534,-0.57021 0.97767,-1.07333 1.48926,-3.64067 2.94732,-7.28636 4.37565,-10.93599 1.91236,-4.8865 3.77369,-9.78105 5.58783,-14.68318 0.21263,-0.5064 0.54869,-0.76778 1.00894,-0.78483 0.14385,-0.005 0.28825,0.004 0.43323,0.0278 0.14387,-0.005 0.30268,0.003 0.47649,0.0258 3.80644,8.56931 7.76334,17.10047 11.84956,25.59672 0.2038,0.42924 0.56693,0.74689 1.08962,0.95224 0.52099,0.17606 1.08397,0.29047 1.68855,0.34294 0.45462,0.0613 0.69705,0.3404 0.72687,0.83802 0.014,0.23414 -1.9e-4,0.49938 -0.0428,0.79566 -0.96462,-0.001 -1.91428,-0.005 -2.84914,-0.0115 -0.93328,0.0227 -1.80563,0.055 -2.61761,0.0973 -0.41668,0.0217 -0.93655,0.0485 -1.5339,0.0783 -0.60011,0.0593 -1.21574,0.11866 -1.84643,0.17781 -0.63076,0.0592 -1.26247,0.10281 -1.89499,0.13093 -0.60156,0.0561 -1.11161,0.10728 -1.53276,0.15441 -0.0652,-0.11466 -0.10081,-0.24523 -0.10692,-0.39173 -0.006,-0.1465 -0.011,-0.26369 -0.0147,-0.35159 -0.011,-0.26368 0.0262,-0.45603 0.11149,-0.57703 0.11416,-0.15156 0.23069,-0.24456 0.34968,-0.279 0.77518,-0.17984 1.33906,-0.36676 1.69127,-0.55875 0.38111,-0.22275 0.56254,-0.52476 0.54502,-0.90554 -0.008,-0.17576 -0.0632,-0.39335 -0.1651,-0.65287 -0.88965,-2.05795 -1.772,-4.11771 -2.64678,-6.17933 z m -0.93561,-2.16236 c -1.39172,-3.24491 -2.76415,-6.49459 -4.1163,-9.74917 -1.1519,3.34113 -2.32447,6.67931 -3.51874,10.01443 2.54618,-0.0725 5.09118,-0.16127 7.63504,-0.26526 z"
           style="font-style:normal;font-variant:normal;font-weight:bold;font-stretch:normal;font-size:44px;font-family:Athelas;-inkscape-font-specification:'Athelas Bold'"
           id="path1313"
           inkscape:original-d="m 560.799,-489.24161 h -9.24 l -2.288,6.116 q -0.132,0.22 -0.176,0.484 -0.044,0.264 -0.044,0.396 0,0.484 0.44,0.792 0.484,0.308 1.892,0.528 0.616,0.088 0.616,0.836 0,0.308 -0.088,0.748 -1.188,-0.088 -2.508,-0.176 -1.32,-0.044 -2.596,-0.044 -0.88,0 -1.848,0.044 -0.968,0.044 -2.156,0.176 -0.088,-0.176 -0.088,-0.396 0,-0.22 0,-0.352 0,-0.836 0.572,-0.88 1.364,-0.264 1.936,-0.572 0.616,-0.308 0.968,-1.056 l 10.604,-25.344 q 0.352,-0.748 1.056,-0.748 0.22,0 0.44,0.044 0.22,0 0.484,0.044 l 10.604,26.136 q 0.264,0.66 1.012,1.012 0.748,0.308 1.628,0.44 0.66,0.132 0.66,0.88 0,0.352 -0.088,0.792 -1.408,-0.088 -2.772,-0.176 -1.364,-0.044 -2.552,-0.044 -0.616,0 -1.496,0 -0.88,0.044 -1.804,0.088 -0.924,0.044 -1.848,0.044 -0.88,0.044 -1.496,0.088 -0.088,-0.176 -0.088,-0.396 0,-0.22 0,-0.352 0,-0.396 0.132,-0.572 0.176,-0.22 0.352,-0.264 1.144,-0.22 1.672,-0.484 0.572,-0.308 0.572,-0.88 0,-0.264 -0.132,-0.66 z m -0.836,-2.2 -3.74,-9.9 -3.828,9.9 z" />
        <path
           d="m 598.43975,-482.77724 -1.41768,-15.55483 c -0.0586,-0.64264 -0.31755,-1.07544 -0.77636,-1.2989 -0.45903,-0.22356 -1.24523,-0.35838 -2.35935,-0.40738 -0.38444,-0.0544 -0.5969,-0.3156 -0.63772,-0.78308 -0.008,-0.0877 -0.0179,-0.20453 -0.0306,-0.35063 -0.0128,-0.14609 0.003,-0.29472 0.0485,-0.44588 0.73072,0.0242 1.44475,0.0196 2.14183,-0.0137 0.6969,-0.0333 1.50895,-0.0924 2.43507,-0.1782 0.92597,-0.0858 1.72149,-0.17549 2.38435,-0.26795 0.6632,-0.0925 1.32365,-0.2149 1.98121,-0.36713 0.0431,0.14318 0.0717,0.28777 0.0858,0.43376 0.0431,0.14319 0.0689,0.25857 0.0774,0.34617 0.0481,0.49636 -0.099,0.79068 -0.44146,0.88271 -0.94305,0.23846 -1.57609,0.50459 -1.89953,0.80045 -0.32331,0.29574 -0.45781,0.73562 -0.40299,1.3197 l 2.4053,25.62753 c -0.11644,0.0403 -0.32376,0.0745 -0.62183,0.10218 -0.26551,0.0541 -0.44316,0.0853 -0.53255,0.0936 -0.2087,0.0193 -0.43776,-0.0185 -0.68703,-0.11349 -0.24658,-0.0657 -0.5188,-0.24705 -0.81634,-0.54397 -6.53747,-6.7686 -12.95726,-13.59872 -19.21197,-20.50378 l 1.34467,18.95405 c 0.0208,0.29251 0.0533,0.54007 0.0977,0.74271 0.0722,0.17126 0.20309,0.32367 0.3928,0.45714 0.21747,0.10207 0.50977,0.19876 0.87684,0.2898 0.39453,0.0596 0.91065,0.125 1.54659,0.19535 0.15159,0.0181 0.27657,0.0823 0.375,0.19262 0.1261,0.0788 0.20128,0.27902 0.22543,0.60068 0.0154,0.20468 0.004,0.45551 -0.0338,0.7524 -0.75272,-0.003 -1.46087,-0.009 -2.12387,-0.0204 -0.66126,0.0183 -1.4255,0.058 -2.29478,0.11826 -0.869,0.0602 -1.7073,0.13158 -2.51504,0.21434 -0.77605,0.11006 -1.49182,0.2149 -2.14863,0.31521 -0.0674,-0.11326 -0.10576,-0.24305 -0.115,-0.38937 -0.009,-0.14632 -0.0166,-0.26337 -0.0222,-0.35116 -0.0185,-0.29263 0.0135,-0.50033 0.096,-0.62306 0.11241,-0.12464 0.24252,-0.20636 0.39038,-0.24518 1.0666,-0.24434 1.77048,-0.51189 2.11152,-0.79895 0.34125,-0.28724 0.49282,-0.70896 0.45531,-1.26483 l -1.49837,-22.20551 c -0.0316,-0.4681 -0.21463,-0.80835 -0.54867,-1.0211 -0.30727,-0.24412 -1.00037,-0.40307 -2.07977,-0.4808 -0.35266,-0.0656 -0.5436,-0.33263 -0.57324,-0.80084 -0.004,-0.0585 -0.007,-0.11705 -0.0111,-0.17558 -0.006,-0.0878 0.003,-0.17649 0.0266,-0.26611 0.007,-0.11797 0.014,-0.23594 0.021,-0.35391 0.4058,0.004 0.79704,0.008 1.17415,0.0126 0.37512,-0.0244 0.75123,-0.0345 1.12839,-0.0303 0.63691,-0.0131 1.27397,-0.027 1.91119,-0.0418 0.65558,-0.0455 1.20679,-0.0845 1.60259,-0.11281 0.83772,-0.0599 1.38921,-0.0565 1.65592,0.0122 0.2643,0.0393 0.50516,0.15381 0.72272,0.34344 5.25487,5.78372 10.62617,11.51562 16.08562,17.20374 z"
           style="font-style:normal;font-variant:normal;font-weight:bold;font-stretch:normal;font-size:44px;font-family:Athelas;-inkscape-font-specification:'Athelas Bold'"
           id="path1315"
           inkscape:original-d="m 598.08391,-489.15361 v -15.62 q 0,-0.968 -0.66,-1.364 -0.66,-0.396 -2.332,-0.616 -0.572,-0.132 -0.572,-0.836 0,-0.132 0,-0.352 0,-0.22 0.088,-0.44 1.1,0.132 2.156,0.176 1.056,0.044 2.464,0.044 1.408,0 2.42,-0.044 1.012,-0.044 2.024,-0.176 0.044,0.22 0.044,0.44 0.044,0.22 0.044,0.352 0,0.748 -0.528,0.836 -1.452,0.22 -1.98,0.616 -0.528,0.396 -0.528,1.276 v 25.74 q -0.176,0.044 -0.616,0.044 -0.396,0.044 -0.528,0.044 -0.308,0 -0.66,-0.176 -0.352,-0.132 -0.748,-0.616 l -17.336,-22 v 19.008 q 0,0.44 0.044,0.748 0.088,0.264 0.352,0.484 0.308,0.176 0.836,0.352 0.572,0.132 1.496,0.308 0.22,0.044 0.352,0.22 0.176,0.132 0.176,0.616 0,0.308 -0.088,0.748 -1.1,-0.088 -2.068,-0.176 -0.968,-0.044 -2.244,-0.044 -1.276,0 -2.464,0.044 -1.144,0.088 -2.112,0.176 -0.088,-0.176 -0.088,-0.396 0,-0.22 0,-0.352 0,-0.44 0.132,-0.616 0.176,-0.176 0.396,-0.22 1.584,-0.264 2.112,-0.66 0.528,-0.396 0.528,-1.232 v -22.264 q 0,-0.704 -0.484,-1.056 -0.44,-0.396 -2.068,-0.616 -0.528,-0.132 -0.528,-0.836 0,-0.088 0,-0.176 0,-0.132 0.044,-0.264 l 0.044,-0.352 q 0.616,0.044 1.188,0.088 0.572,0 1.144,0.044 0.968,0.044 1.936,0.088 1.012,0 1.628,0 1.276,0 1.672,0.132 0.396,0.088 0.704,0.396 z" />
        <path
           d="m 615.26935,-501.35507 1.13991,10.54545 c 2.06591,-0.22336 4.1315,-0.45167 6.19679,-0.68438 0.55663,-0.0627 0.9127,-0.32461 1.06805,-0.78519 0.15205,-0.48979 0.24316,-1.25318 0.27322,-2.29028 0.003,-0.23657 0.0738,-0.39233 0.21329,-0.4673 0.13617,-0.10412 0.32114,-0.16953 0.55495,-0.19627 0.0877,-0.01 0.22085,-0.0105 0.39956,-0.001 0.20459,-0.0235 0.35238,-0.0257 0.44342,-0.007 0.0186,0.67721 0.0505,1.47104 0.0957,2.38148 0.0711,0.87799 0.14176,1.62295 0.21201,2.2352 0.0602,0.52471 0.1468,1.14988 0.2598,1.87529 0.10965,0.69623 0.26042,1.49128 0.45242,2.38482 -0.0815,0.0684 -0.22344,0.12904 -0.42587,0.18177 -0.0566,0.006 -0.3403,0.0389 -0.39687,0.0454 -0.52922,0.0605 -0.83174,-0.1119 -0.90758,-0.5167 -0.30241,-1.08782 -0.59237,-1.80799 -0.87011,-2.16038 -0.25173,-0.38492 -0.62684,-0.54911 -1.12558,-0.49293 -2.06837,0.23302 -4.13726,0.46166 -6.20667,0.68533 l 1.05951,9.80159 c 0.0662,0.61254 0.49497,0.97962 1.28681,1.10007 0.79124,0.12035 2.1058,0.0803 3.93903,-0.12451 0.62106,-0.0694 1.24199,-0.13918 1.86277,-0.20935 0.88682,-0.10023 1.6124,-0.30116 2.17642,-0.60203 0.5936,-0.30426 1.1029,-0.68785 1.52787,-1.15052 0.42161,-0.49183 0.77699,-1.03528 1.06625,-1.63024 0.28587,-0.6241 0.56454,-1.30657 0.83593,-2.04739 0.0644,-0.21435 0.25851,-0.34046 0.58221,-0.37845 0.14714,-0.0173 0.32884,0.006 0.54512,0.0689 0.21628,0.0632 0.43259,0.12633 0.64891,0.18944 -0.0313,0.24008 -0.0791,0.46733 -0.1434,0.68174 -0.0348,0.21094 -0.0697,0.42187 -0.10455,0.63281 -0.10949,0.33792 -0.18619,0.70151 -0.23005,1.09076 -0.0439,0.38926 -0.0963,0.70567 -0.15742,0.94921 -0.0247,0.29834 -0.0591,0.6422 -0.1032,1.03144 -0.018,0.35665 -0.0507,0.71504 -0.0983,1.07515 -0.0215,0.32752 -0.0612,0.62761 -0.1191,0.90029 -0.0284,0.26921 -0.0523,0.44929 -0.0716,0.54017 -0.0909,0.24699 -0.31379,0.39124 -0.66858,0.43259 -0.23644,0.0275 -0.57832,0.0526 -1.0252,0.0748 -0.44709,0.0223 -0.93823,0.0495 -1.47419,0.0816 -0.5029,0.0578 -1.02239,0.10253 -1.55841,0.13408 -0.53606,0.0316 -0.99643,0.069 -1.38133,0.11246 -3.36011,0.37974 -6.72478,0.74833 -10.09408,1.10338 -0.86154,0.0908 -1.85342,0.20916 -2.98007,0.35455 -1.09368,0.1715 -2.08281,0.33061 -2.96953,0.47847 -0.0712,-0.1108 -0.1156,-0.25378 -0.13318,-0.42892 -0.0205,-0.20433 -0.0352,-0.35029 -0.0439,-0.43786 -0.044,-0.43787 0.0812,-0.68623 0.37512,-0.74527 1.10756,-0.31773 1.88669,-0.61897 2.33699,-0.90103 0.48024,-0.28529 0.68978,-0.71996 0.62935,-1.3036 l -2.27083,-21.93097 c -0.0302,-0.29183 -0.098,-0.52078 -0.20328,-0.68684 -0.1083,-0.19525 -0.29919,-0.33769 -0.5726,-0.42746 -0.24739,-0.12196 -0.57876,-0.20579 -0.99416,-0.25176 -0.38942,-0.0781 -0.89456,-0.14453 -1.51579,-0.19974 -0.29903,-0.0583 -0.47041,-0.30642 -0.51437,-0.74427 -0.0146,-0.14595 -0.0278,-0.27731 -0.0396,-0.39407 -0.0146,-0.14595 -3.2e-4,-0.29482 0.043,-0.44661 1.25419,-0.0379 2.3626,-0.0926 3.32185,-0.16258 0.95931,-0.07 1.78817,-0.14228 2.4838,-0.21586 2.97273,-0.3144 5.94729,-0.63997 8.9237,-0.97493 1.30647,-0.14702 2.42036,-0.31841 3.33965,-0.5125 0.94912,-0.19759 1.59671,-0.31695 1.94589,-0.35745 0.3196,-0.0371 0.5673,0.067 0.74316,0.31245 0.11433,0.22302 0.23792,0.65178 0.37081,1.28622 0.1295,0.60529 0.30609,1.23467 0.52994,1.88803 0.14519,0.48529 0.30332,0.95428 0.47443,1.40699 0.17108,0.45264 0.41254,1.00063 0.72451,1.64354 -0.13906,0.0754 -0.29273,0.15247 -0.461,0.23124 -0.16828,0.0788 -0.33998,0.12835 -0.51507,0.14877 -0.32102,0.0374 -0.56974,-0.0666 -0.74609,-0.31198 -0.43813,-0.71717 -0.86223,-1.31792 -1.27249,-1.80221 -0.3845,-0.51682 -0.81346,-0.91044 -1.28693,-1.18097 -0.44771,-0.30302 -0.97073,-0.49417 -1.56917,-0.57369 -0.56939,-0.0828 -1.24654,-0.0798 -2.03178,0.009 -1.93398,0.21761 -3.86736,0.43127 -5.80014,0.6405 z"
           style="font-style:normal;font-variant:normal;font-weight:bold;font-stretch:normal;font-size:44px;font-family:Athelas;-inkscape-font-specification:'Athelas Bold'"
           id="path1317"
           inkscape:original-d="m 616.62653,-505.96161 v 10.604 h 6.204 q 0.836,0 1.144,-0.66 0.308,-0.704 0.528,-2.244 0.044,-0.352 0.264,-0.44 0.22,-0.132 0.572,-0.132 0.132,0 0.396,0.044 0.308,0 0.44,0.044 -0.088,1.012 -0.176,2.376 -0.044,1.32 -0.044,2.244 0,0.792 0.044,1.892 0.044,1.056 0.176,2.42 -0.132,0.088 -0.44,0.132 -0.264,0 -0.396,0 -0.792,0 -0.836,-0.616 -0.264,-1.672 -0.616,-2.244 -0.308,-0.616 -1.056,-0.616 h -6.204 v 9.856 q 0,0.924 1.144,1.232 1.144,0.308 3.872,0.308 h 1.848 q 1.32,0 2.2,-0.352 0.924,-0.352 1.628,-0.968 0.704,-0.66 1.232,-1.496 0.528,-0.88 1.056,-1.936 0.132,-0.308 0.616,-0.308 0.22,0 0.528,0.132 0.308,0.132 0.616,0.264 -0.088,0.352 -0.22,0.66 -0.088,0.308 -0.176,0.616 -0.22,0.484 -0.352,1.056 -0.132,0.572 -0.264,0.924 -0.088,0.44 -0.22,1.012 -0.088,0.528 -0.22,1.056 -0.088,0.484 -0.22,0.88 -0.088,0.396 -0.132,0.528 -0.176,0.352 -0.704,0.352 -0.352,0 -1.012,-0.044 -0.66,-0.044 -1.452,-0.088 -0.748,0 -1.54,-0.044 -0.792,-0.044 -1.364,-0.044 h -9.988 q -1.276,0 -2.948,0.044 -1.628,0.088 -2.948,0.176 -0.088,-0.176 -0.088,-0.44 0,-0.308 0,-0.44 0,-0.66 0.44,-0.704 1.672,-0.308 2.376,-0.66 0.748,-0.352 0.748,-1.232 v -22.044 q 0,-0.44 -0.132,-0.704 -0.132,-0.308 -0.528,-0.484 -0.352,-0.22 -0.968,-0.352 -0.572,-0.176 -1.496,-0.352 -0.44,-0.132 -0.44,-0.792 0,-0.22 0,-0.396 0,-0.22 0.088,-0.44 1.892,0.132 3.344,0.176 1.452,0.044 2.508,0.044 h 9.02 q 1.98,0 3.388,-0.132 1.452,-0.132 1.98,-0.132 0.484,0 0.704,0.396 0.132,0.352 0.22,1.32 0.088,0.924 0.308,1.936 0.132,0.748 0.308,1.452 0.176,0.704 0.528,1.716 -0.22,0.088 -0.484,0.176 -0.264,0.088 -0.528,0.088 -0.484,0 -0.704,-0.396 -0.528,-1.144 -1.056,-1.936 -0.484,-0.836 -1.144,-1.32 -0.616,-0.528 -1.496,-0.748 -0.836,-0.22 -2.024,-0.22 z" />
        <path
           d="m 652.42603,-500.81883 c -0.25185,0.12066 -0.52387,0.19949 -0.81603,0.23648 -0.40903,0.0518 -0.7104,0.016 -0.9041,-0.10739 -0.19738,-0.15246 -0.33632,-0.31233 -0.41683,-0.47958 -0.88165,-1.57408 -1.9079,-2.65712 -3.07872,-3.24942 -1.14177,-0.59602 -2.60126,-0.78293 -4.37929,-0.56242 -1.39906,0.1735 -2.55045,0.67002 -3.45568,1.49052 -0.87952,0.78768 -1.23464,1.88041 -1.06389,3.27844 0.13162,1.07767 0.60325,1.90701 1.41587,2.48735 0.83827,0.54763 1.84358,1.0005 3.01599,1.35805 1.20169,0.35394 2.47519,0.68336 3.82068,0.98816 1.37471,0.30114 2.66212,0.73053 3.86244,1.28865 1.22955,0.55442 2.27874,1.3232 3.14754,2.30689 0.89803,0.9799 1.45492,2.31355 1.66981,4.00123 0.14078,1.10573 0.0874,2.20671 -0.16063,3.30288 -0.24802,1.09616 -0.73115,2.10409 -1.44994,3.02342 -0.72247,0.89021 -1.68441,1.66288 -2.88627,2.31721 -1.20546,0.62518 -2.69158,1.0486 -4.45804,1.26857 -1.94322,0.24199 -3.70706,0.25241 -5.28966,0.032 -1.58611,-0.2495 -2.9105,-0.56221 -3.9726,-0.9368 -0.23915,-1.2421 -0.53362,-2.44801 -0.88309,-3.61776 -0.32353,-1.20243 -0.67094,-2.35771 -1.04208,-3.46583 0.27989,-0.15174 0.61076,-0.25055 0.99267,-0.29649 0.35253,-0.0424 0.62567,-0.001 0.81952,0.12291 0.19032,0.0953 0.36361,0.29598 0.51989,0.60221 0.51583,1.06082 1.05869,1.9704 1.6285,2.7288 0.56626,0.72926 1.19058,1.31825 1.87281,1.76688 0.67866,0.4195 1.42987,0.69681 2.25328,0.83177 0.85283,0.13133 1.80906,0.13121 2.86809,-6.5e-4 0.91193,-0.11354 1.67674,-0.32751 2.29432,-0.64149 0.61395,-0.3431 1.1009,-0.74441 1.46097,-1.20372 0.36007,-0.45931 0.60796,-0.9785 0.74382,-1.55747 0.13586,-0.57898 0.16702,-1.15955 0.0937,-1.74169 -0.15774,-1.25159 -0.64736,-2.1804 -1.46813,-2.78675 -0.79519,-0.63921 -1.76407,-1.12373 -2.90679,-1.45414 -1.1171,-0.36321 -2.33082,-0.67056 -3.64148,-0.92263 -1.28491,-0.2848 -2.50865,-0.68158 -3.6708,-1.19018 -1.13642,-0.54132 -2.13205,-1.27788 -2.98676,-2.20925 -0.82906,-0.96414 -1.3476,-2.32033 -1.55762,-4.06848 -0.14001,-1.16534 -0.0651,-2.26791 0.22379,-3.30753 0.31455,-1.07228 0.83553,-2.02185 1.56265,-2.84895 0.72362,-0.85626 1.62612,-1.57211 2.70794,-2.14809 1.11096,-0.57956 2.40846,-0.9611 3.89376,-1.14538 1.22319,-0.15176 2.46303,-0.17334 3.71998,-0.0647 1.28607,0.10498 2.75508,0.36372 4.40786,0.77563 0.16909,0.86565 0.38218,1.8441 0.63931,2.93513 0.28265,1.05828 0.56707,2.01279 0.85329,2.86358 z"
           style="font-style:normal;font-variant:normal;font-weight:bold;font-stretch:normal;font-size:44px;font-family:Athelas;-inkscape-font-specification:'Athelas Bold'"
           id="path1319"
           inkscape:original-d="m 653.4271,-501.03361 q -0.396,0.132 -0.836,0.132 -0.616,0 -0.88,-0.22 -0.264,-0.264 -0.352,-0.528 -1.012,-2.508 -2.64,-3.608 -1.584,-1.1 -4.268,-1.1 -2.112,0 -3.608,1.056 -1.452,1.012 -1.452,3.124 0,1.628 1.1,2.64 1.144,0.968 2.816,1.716 1.716,0.748 3.652,1.452 1.98,0.704 3.652,1.76 1.716,1.056 2.816,2.684 1.144,1.628 1.144,4.18 0,1.672 -0.572,3.256 -0.572,1.584 -1.804,2.816 -1.232,1.188 -3.124,1.936 -1.892,0.704 -4.532,0.704 -2.904,0 -5.192,-0.616 -2.288,-0.66 -3.784,-1.408 -0.132,-1.892 -0.44,-3.696 -0.264,-1.848 -0.616,-3.564 0.44,-0.176 1.012,-0.176 0.528,0 0.792,0.22 0.264,0.176 0.44,0.66 0.572,1.672 1.276,2.904 0.704,1.188 1.628,1.98 0.924,0.748 2.112,1.1 1.232,0.352 2.816,0.352 1.364,0 2.332,-0.352 0.968,-0.396 1.584,-1.012 0.616,-0.616 0.924,-1.452 0.308,-0.836 0.308,-1.716 0,-1.892 -1.1,-2.948 -1.056,-1.1 -2.684,-1.804 -1.584,-0.748 -3.476,-1.364 -1.848,-0.66 -3.476,-1.628 -1.584,-1.012 -2.684,-2.552 -1.056,-1.584 -1.056,-4.224 0,-1.76 0.616,-3.256 0.66,-1.54 1.892,-2.64 1.232,-1.144 2.948,-1.804 1.76,-0.66 4.004,-0.66 1.848,0 3.696,0.396 1.892,0.396 4.268,1.32 0.088,1.32 0.264,2.992 0.22,1.628 0.484,2.948 z" />
      </g>
    </g>
    <g
       id="g1765"
       transform="matrix(0.26458333,0,0,0.26458333,-274.54693,95.45942)">
      <path
         style="fill:#fff900;fill-opacity:1;stroke:none;stroke-width:0.1;stroke-miterlimit:4;stroke-dasharray:none;stroke-opacity:1"
         d="m 418.44253,-336.34019 c -2.75665,-0.42526 -5.43091,-1.15523 -8.11322,-1.89585 -4.89501,-1.69133 -9.88551,-3.25934 -13.92916,-4.98368 -4.49153,-1.91903 -9.13926,-4.03356 -13.48264,-6.37272 -17.0749,-9.1676 -33.005,-22.9751 -43.2035,-37.4468 -14.3736,-20.3962 -29.0356,-55.2329 -37.4829,-89.0593 l -3.0689,-11.0383 -8.1161,-6.9617 c -5.12111,-3.35308 -10.74717,-7.66304 -12.048,-13.45637 -0.88461,-4.04999 -0.39458,-9.37052 1.4953,-13.25523 2.86105,-5.88098 9.7282,-12.35339 18.3998,-17.64662 17.01774,-10.29881 45.31917,-14.65767 64.2538,-9.36208 7.5987,2.3527 14.8535,8.1593 17.5878,13.0087 2.9891,5.3013 3.18118,15.4403 0.33629,23.88507 -0.81755,2.42682 -1.31262,2.9447 -2.60962,4.85182 0.28704,3.15467 0.97064,8.36488 1.54703,17.10151 2.46005,37.28799 8.8845,63.9491 21.124,87.6616 5.3159,8.4947 10.9563,18.1538 17.6801,24.5387 3.2773,2.9903 8.0931,6.284 13.2937,9.5875 13.4764,8.8508 27.3979,19.5315 38.9168,29.5295 22.25091,19.0585 31.90723,32.315 35.47341,48.6993 2.42319,11.133 1.07791,15.9767 -4.79131,16.57989 -1.35359,0.2335 -2.58486,-0.25285 -3.54491,-0.88271 -2.50776,-1.66295 -5.998,-5.25269 -7.7293,-8.64644 -0.59872,-1.17362 -0.69408,-3.11052 -1.47887,-4.18824 -1.2173,-0.30181 -2.21377,-0.13613 -3.41909,-0.57197 -1.28003,-0.46285 -3.94341,-2.23918 -5.95581,-4.01238 -4.32967,-3.2844 -5.79821,-7.32733 -7.31786,-12.23052 -0.74683,-0.49837 -2.81295,-0.29405 -4.13664,-0.56566 -3.72583,-0.76453 -6.85543,-1.97067 -10.14645,-3.95884 -2.00099,-1.20884 -3.07956,-2.6509 -5.06878,-4.36378 -1.86823,-0.2702 -3.45269,-0.6689 -4.95505,-1.18825 -3.32262,-1.4232 -6.52015,-2.61746 -9.56711,-4.20185 -4.52073,-2.36427 -7.54088,-5.07581 -11.26829,-7.93047 -3.9597,-3.85436 -6.02287,-5.70799 -8.67452,-11.22384 z"
         id="path1742"
         sodipodi:nodetypes="ccccsscccsccsscsccccsccccccccscccccc" />
      <ellipse
         style="opacity:1;fill:#ffffff;fill-opacity:1;fill-rule:evenodd;stroke:#c8ae00;stroke-width:3.40013;stroke-linecap:round;stroke-miterlimit:4;stroke-dasharray:none;stroke-opacity:1;paint-order:markers stroke fill"
         id="path1744"
         cx="458.0834"
         cy="-417.16068"
         rx="33.844612"
         ry="17.192566"
         transform="matrix(0.9663813,-0.25711316,0.26847152,0.96328762,0,0)" />
      <path
         style="fill:#c8ae00;fill-opacity:1;stroke:none;stroke-width:0.1;stroke-linecap:butt;stroke-linejoin:miter;stroke-miterlimit:4;stroke-dasharray:none;stroke-opacity:1"
         d="m 291.04611,-494.09854 c 6.48484,2.93227 14.19874,4.1823 20.32889,4.84854 13.29613,0.52357 25.58241,-0.62539 36.55213,-4.84945 5.44486,-1.88542 10.58387,-4.55879 14.94787,-6.90055 3.94666,-2.27114 7.47882,-4.76144 10.58343,-7.78605 2.81417,-2.584 5.34429,-6.0209 7.15568,-9.6041 1.06049,-2.0978 2.52606,-6.20712 2.52606,-6.20712 0.1313,2.63331 -0.13717,5.23267 -0.3902,7.84727 -0.56358,3.97699 -2.1125,7.58074 -4.28852,10.67675 -4.58399,3.90397 -8.73249,7.12924 -14.5776,10.0518 -5.44205,3.03146 -11.62174,5.48797 -17.49177,7.40499 -10.97181,3.70491 -21.8214,4.12535 -32.39208,4.11646 -4.91649,-0.46719 -10.27525,-0.57536 -14.83779,-2.63684 L 295.875,-489.875 Z"
         id="path1757"
         sodipodi:nodetypes="cccccsccccccccc" />
      <path
         style="fill:#c8ae00;fill-opacity:1;stroke:none;stroke-width:0.1;stroke-linecap:butt;stroke-linejoin:miter;stroke-miterlimit:4;stroke-dasharray:none;stroke-opacity:1"
         d="m 407.84145,-340.19751 c 5.04306,0.54535 10.0903,1.46115 14.74324,1.67014 2.35514,-0.008 4.6977,-0.20476 7.03333,-0.47445 0.87007,-0.144 1.86035,-0.33894 2.51261,-0.14424 -2.17114,1.96172 -3.94145,4.35027 -5.39169,6.62913 -0.5103,1.02718 -0.64653,2.04624 -0.60379,3.08933 0.29165,1.73275 1.42815,2.46814 2.51875,3.56715 4.12687,2.94217 8.35629,6.49246 12.80214,7.86514 1.72741,0.44149 3.40446,0.89532 5.04928,1.17788 3.44571,0.31735 6.55682,0.37486 9.97604,0.38505 1.69905,0.11821 3.41658,-0.25575 4.9661,-0.52372 1.30176,-0.22544 2.55669,-0.45501 3.82549,-0.73608 1.59187,-0.42724 3.16457,-1.09048 4.42273,-0.8594 l -1.5026,1.67937 c -1.41493,1.70319 -2.61636,3.48258 -3.97748,5.21492 -0.55004,0.77981 -0.69563,1.4489 -0.5549,2.11716 0.39254,1.26746 0.9355,1.58052 2.04089,1.81209 1.65884,0.32655 3.19194,0.50413 4.7841,0.71121 4.61682,0.57124 8.70106,0.71155 13.21379,1.24207 1.31475,0.16092 2.66802,0.32392 3.94418,0.48481 0.84108,0.0516 1.61298,0.19072 2.22444,0.48847 1.32509,0.6841 0.95505,1.58492 0.52307,2.69645 -0.99242,1.90796 -2.47165,2.53465 -4.25115,3.18769 -2.45656,1.06825 -4.99412,0.77676 -6.8344,2.34954 -1.11918,1.12295 -0.56482,1.87121 1.4386,3.29529 2.09801,1.54497 3.90505,2.57425 6.36799,3.25579 2.94732,0.79222 6.25545,1.21753 9.01158,1.34042 0.52254,0.0256 0.81219,0.34605 0.81726,0.58292 -0.18624,1.77516 -0.32634,3.16468 -0.50767,4.58778 -0.15244,1.22404 -0.20932,2.43937 -0.081,3.66265 0.17542,1.68495 0.68465,3.32612 1.36536,4.79653 0.23396,0.53652 0.50431,0.96941 0.78955,1.43866 0.046,0.2364 -0.1163,0.29592 -0.24013,0.42153 l -0.68204,-0.44593 -0.71275,-0.58996 c -1.35794,-0.98162 -2.48151,-2.253 -3.56678,-3.50964 -1.29072,-1.49004 -2.36386,-2.57461 -3.05346,-4.23335 -0.4596,-1.44592 -0.49689,-2.48459 -1.07268,-3.69271 -0.2629,-0.55216 -0.54672,-0.47127 -1.1795,-0.5436 -1.44174,-0.10735 -2.49565,-0.40189 -3.54162,-0.90817 -1.77831,-0.9512 -3.28729,-2.2873 -4.88115,-3.56734 -4.25641,-3.27022 -5.39173,-6.49814 -6.96474,-10.99245 -0.65973,-1.59714 -1.05755,-1.49202 -2.74004,-1.591 -2.02115,-0.20411 -3.79414,-0.43928 -5.78943,-1.14905 -2.16474,-0.72246 -4.19951,-1.76189 -6.12598,-2.97499 -1.94748,-1.13222 -3.55309,-2.96095 -5.04954,-4.41132 -2.30223,-0.1793 -4.50492,-0.96439 -6.45796,-1.80608 -1.80352,-0.79164 -3.52503,-1.41482 -5.13648,-2.13037 -1.27542,-0.56633 -2.45399,-1.12269 -3.64167,-1.78574 -1.43949,-0.83741 -2.76265,-1.68043 -4.05095,-2.55359 -0.55506,-0.38712 -1.09854,-0.78375 -1.65485,-1.18352 -2.59948,-1.86802 -4.97623,-3.78862 -6.86359,-5.69204 -2.25172,-2.05041 -4.04275,-4.64106 -5.56671,-7.11664 l -1.09271,-2.27647 -2.49729,-0.42964 c -2.56194,-0.52903 -4.72737,-1.199 -7.0166,-1.89008 -1.50863,-0.56474 -2.90849,-0.93483 -4.33103,-1.52849 0.52281,-0.60533 2.15578,-0.12166 3.24384,-0.009 z"
         id="path1759"
         sodipodi:nodetypes="cccccccccccccccccccccccccccccccccccccccccccccccsccscccccccc" />
    </g>
  </g>
</svg>
